<?xml version="1.0" standalone="no"?>
<!DOCTYPE svg PUBLIC "-//W3C//DTD SVG 20010904//EN"
 "http://www.w3.org/TR/2001/REC-SVG-20010904/DTD/svg10.dtd">
<svg version="1.0" xmlns="http://www.w3.org/2000/svg"
 width="256.000000pt" height="256.000000pt" viewBox="0 0 256.000000 256.000000"
 preserveAspectRatio="xMidYMid meet">
<metadata>
Created by potrace 1.14, written by Peter Selinger 2001-2017
</metadata>
<g transform="translate(0.000000,256.000000) scale(0.100000,-0.100000)"
fill="#000000" stroke="none">
<path d="M455 2468 c-45 -10 -81 -33 -122 -77 -63 -69 -60 -13 -61 -1209 0
-601 1 -1092 3 -1092 3 0 63 70 170 199 11 13 25 29 30 35 6 6 32 38 60 71 27
33 52 62 55 65 3 3 22 26 43 51 l37 46 0 757 c0 598 3 756 13 757 6 0 125 0
264 1 l252 0 123 156 c67 87 125 159 128 162 8 8 60 78 60 82 0 7 -1021 3
-1055 -4z"/>
<path d="M1725 2451 c-11 -13 -25 -29 -30 -35 -6 -6 -60 -74 -120 -151 -114
-145 -345 -435 -374 -470 -9 -11 -38 -48 -64 -82 -26 -34 -53 -68 -60 -75 -7
-7 -55 -67 -107 -133 -52 -66 -100 -126 -107 -133 -7 -7 -13 -28 -14 -45 -1
-45 -1 -463 0 -515 l1 -43 38 43 c20 24 55 66 77 92 22 27 48 58 58 70 10 11
37 43 60 71 23 27 53 62 67 77 l25 29 112 -133 c61 -73 124 -146 138 -163 14
-16 47 -55 73 -85 64 -75 115 -133 128 -146 6 -7 46 -53 89 -103 l79 -91 244
0 c232 0 244 1 231 18 -24 28 -144 167 -149 172 -3 3 -30 34 -59 70 -30 36
-65 76 -78 90 -13 14 -33 36 -44 50 -11 14 -40 48 -64 75 -23 28 -102 120
-175 205 -73 85 -157 183 -188 218 -69 79 -92 108 -92 117 0 6 71 97 90 115 3
3 32 39 65 80 58 73 90 111 110 134 6 6 69 81 140 166 71 85 132 157 135 160
3 3 28 32 55 65 28 33 52 62 55 65 3 3 32 36 65 75 33 38 73 84 89 102 66 74
85 68 -212 68 l-266 0 -21 -24z"/>
</g>
</svg>
