<?xml version="1.0" encoding="UTF-8"?><svg id="Layer_1" xmlns="http://www.w3.org/2000/svg" viewBox="0 0 149.90509 176.7677"><defs><style>.cls-1{fill:#23282d;}</style></defs><path class="cls-1" d="M69.1161,29.7664H29.6025v112.0719L0,176.7677V17.8061C.006,7.9829,7.9719,.0224,17.7952,.0216L92.7488,.0074c-3.557,4.5253-7.1596,9.0281-10.675,13.4222-4.2663,5.3327-8.668,10.8337-12.9577,16.3368Zm15.9969,46.4761l1.6299-2.0017C107.5366,48.6929,128.98339,23.9651,149.8582,0h-40.2762c-20.9984,26.3204-48.7164,60.8261-66.6883,83.0186v43.177c7.1659-8.3048,14.6175-16.9748,21.9517-25.6151l2.384-2.8091,2.3533,2.8346c6.5183,7.8562,17.5607,20.4561,28.2389,32.6416,5.4722,6.2445,10.8699,12.4038,15.5622,17.8143h36.5213c-14.6462-16.8982-60.6407-69.9704-63.1133-72.8583l-1.6788-1.9611Z"/></svg>