<?xml version="1.0" encoding="utf-8"?>
<!-- Generator: Adobe Illustrator 25.0.0, SVG Export Plug-In . SVG Version: 6.00 Build 0)  -->
<svg version="1.1" id="Layer_1" xmlns="http://www.w3.org/2000/svg" xmlns:xlink="http://www.w3.org/1999/xlink" x="0px" y="0px"
	 viewBox="0 0 2016 720" style="enable-background:new 0 0 2016 720;" xml:space="preserve">
<style type="text/css">
	.st0{fill:#73A952;}
	.st1{fill:#303030;}
</style>
<g id="Layer_2_1_">
	<g>
		<path class="st0" d="M822.9,149.5c-4.8-4.8-10.8-4.4-10.8-4.4s-132.1,7.3-200.3,8.9c-14.9,0.3-29.8,0.6-44.5,0.6v132.1
			c-6.4-2.9-12.4-6-18.7-8.9c0-41,0-122.9,0-122.9c-32.7,0.3-100.3-2.5-100.3-2.5s-159.4-7.9-176.5-9.5c-11.1-0.6-25.4-2.2-43.8,1.6
			c-9.8,1.9-37.8,8.3-60.6,30.2c-50.8,45.1-37.8,117.2-36.2,128c1.9,13,7.6,49.8,35.6,81.6c51.4,63.2,162.6,61.6,162.6,61.6
			s13.7,32.7,34.6,62.5c28.3,37.1,57.2,66.4,85.1,69.9c70.8,0,212.7,0,212.7,0s13.7,0,31.8-11.7c15.9-9.5,29.8-26.4,29.8-26.4
			s14.6-15.6,34.9-51.1c6.4-10.8,11.4-21.6,15.9-31.4c0,0,62.2-131.8,62.2-260.4C834.6,158.7,825.1,151.7,822.9,149.5L822.9,149.5z
			 M263.1,379.3c-29.2-9.5-41.6-21-41.6-21s-21.6-15.2-32.4-44.8c-18.4-50.2-1.6-80.3-1.6-80.3s9.5-25.4,43.5-33.7
			c15.6-4.1,34.9-3.5,34.9-3.5s7.9,67,17.8,106c8.3,33,27.9,87.6,27.9,87.6S282.1,386,263.1,379.3L263.1,379.3z M601.2,500.3
			c0,0-7,16.2-22.2,17.5c-6.7,0.3-11.7-1.3-11.7-1.3s-0.3,0-6-2.2l-127-61.9c0,0-12.4-6.4-14.3-17.5c-2.5-9.2,3.2-20.3,3.2-20.3
			l61.3-126.1c0,0,5.4-10.8,13.7-14.6c0.6-0.3,2.5-1.3,5.1-1.6c9.2-2.2,20.3,3.2,20.3,3.2l124.8,60.3c0,0,14.3,6.4,17.1,18.1
			c2.2,8.3-0.6,15.9-1.9,19.4C656.2,390.4,601.2,500.3,601.2,500.3L601.2,500.3z"/>
		<path class="st0" d="M489.8,408.9c-9.2,0-17.5,6.7-19.4,15.6c-2.2,8.9,2.2,18.4,10.2,22.5c8.6,4.4,19.7,1.9,25.7-6
			c5.7-7.9,4.8-19.1-1.9-26l27-55.2c1.6,0,4.1,0.3,7-0.6c4.8-1,7.9-4.1,7.9-4.1c4.8,1.9,9.8,4.1,14.9,7c5.4,2.9,10.5,5.4,15.2,8.3
			c1,0.6,1.9,1.3,3.2,2.2c1.9,1.6,3.8,3.5,5.4,6.4c2.2,6.4-2.2,16.8-2.2,16.8c-2.5,8.6-20.6,45.7-20.6,45.7c-9.2-0.3-17.1,5.7-20,14
			c-2.9,9.2,1.3,19.4,10.2,24.1s19.7,1.9,25.4-6c5.7-7.6,5.1-18.4-1.3-25.4c2.2-4.1,4.1-8.3,6.4-12.7c5.7-11.7,15.2-34.3,15.2-34.3
			c1-1.9,6.4-11.7,3.2-24.1c-2.9-12.7-14.3-18.7-14.3-18.7c-13.7-8.9-33-17.1-33-17.1s0-4.8-1.3-7.9c-1.3-3.5-3.2-5.7-4.4-7
			c5.4-10.8,10.5-21.6,15.9-32.7c-4.8-2.2-9.2-4.4-13.7-7c-5.4,11.1-10.8,22.2-16.2,33.3c-7.6,0-14.6,3.8-18.1,10.5
			c-3.8,7-3.2,15.9,2.2,22.2L489.8,408.9L489.8,408.9z"/>
	</g>
	<g>
		<path class="st1" d="M1046.4,360.6h111.1v145.1c-18.1,5.7-34.9,9.8-50.8,12.4c-15.9,2.2-32.1,3.5-48.6,3.5
			c-42.2,0-74.6-12.4-96.8-37.1c-22.2-24.8-33.3-60.3-33.3-107c0-45.1,13-80.3,38.7-105.7s61.6-37.8,107.3-37.8
			c28.6,0,56.5,5.7,83.2,17.1l-19.7,47.3c-20.3-10.2-41.6-15.2-63.8-15.2c-25.7,0-46,8.6-61.6,25.7c-15.6,17.1-23.2,40.3-23.2,69.5
			c0,30.5,6.4,53.7,18.7,69.5c12.4,15.9,30.5,24.1,54.3,24.1c12.4,0,25.1-1.3,37.8-3.8v-58.4h-53v-49.2H1046.4z"/>
		<path class="st1" d="M1207.1,248.5c0-19.1,10.5-28.6,31.8-28.6s31.8,9.5,31.8,28.6c0,9.2-2.5,16.2-7.9,21.3
			c-5.4,5.1-13.3,7.6-23.8,7.6C1217.8,277.1,1207.1,267.6,1207.1,248.5z M1268,517.8h-58.4v-214h58.4V517.8z"/>
		<path class="st1" d="M1409.6,475.2c10.2,0,22.5-2.2,36.8-6.7V512c-14.6,6.4-32.4,9.8-53.7,9.8c-23.5,0-40.3-6-51.1-17.8
			c-10.8-11.7-15.9-29.5-15.9-53V347.9h-27.9v-24.8l32.1-19.4l16.8-45.1h37.5v45.4h60v43.8h-60v102.9c0,8.3,2.2,14.3,7,18.4
			C1395.7,473.3,1402,475.2,1409.6,475.2z"/>
		<path class="st1" d="M1576.6,521.6c-34.6,0-61.3-9.5-80.6-28.6c-19.4-19.1-29.2-46-29.2-80.6c0-35.9,8.9-63.5,27-83.2
			c17.8-19.7,42.9-29.5,74.3-29.5c30.2,0,53.7,8.6,70.5,25.7s25.4,41,25.4,71.4V425h-138.1c0.6,16.5,5.4,29.5,14.6,38.7
			c9.2,9.2,22.2,14,38.7,14c13,0,25.1-1.3,36.5-4.1c11.4-2.5,23.5-7,35.9-12.7V506c-10.2,5.1-21.3,8.9-32.7,11.4
			C1607.4,520.3,1593.5,521.6,1576.6,521.6z M1568.4,341.2c-12.4,0-22.2,3.8-29.2,11.7s-11.1,19.1-12.1,33.3h81.9
			c-0.3-14.3-4.1-25.4-11.4-33.3C1590.6,345.4,1580.8,341.2,1568.4,341.2z"/>
		<path class="st1" d="M1837.6,517.8l-11.4-29.2h-1.6c-9.8,12.4-20,21-30.5,25.7c-10.5,4.8-23.8,7.3-40.6,7.3
			c-20.6,0-36.8-5.7-48.6-17.5s-17.8-28.6-17.8-50.2c0-22.9,7.9-39.4,23.8-50.2c15.9-10.8,39.7-16.8,71.8-17.8l37.1-1.3v-9.5
			c0-21.6-11.1-32.4-33.3-32.4c-17.1,0-37.1,5.1-60.3,15.6l-19.4-39.4c24.8-13,52.1-19.4,81.9-19.4c28.6,0,50.8,6.4,66,18.7
			c15.2,12.4,22.9,31.4,22.9,57.2v142.6h-40V517.8z M1820.2,418.7l-22.5,0.6c-16.8,0.6-29.5,3.5-37.8,9.2
			c-8.3,5.7-12.4,14.3-12.4,25.7c0,16.5,9.5,24.8,28.3,24.8c13.7,0,24.4-3.8,32.4-11.7c8.3-7.9,12.1-18.1,12.1-31.1V418.7z"/>
	</g>
</g>
</svg>