<?xml version="1.0" encoding="UTF-8"?> <svg xmlns="http://www.w3.org/2000/svg" width="153" height="32" viewBox="0 0 153 32" fill="none"><path fill-rule="evenodd" clip-rule="evenodd" d="M50.6936 12.5208H46.9934L41.405 17.9239V6.85742H38.613V25.1309H41.405V20.8481L43.617 18.8898L48.032 25.1309H51.4668L45.6132 17.0902L50.6936 12.5208ZM5.3364 6.87767L3.04688 9.24334V22.7558L5.33623 25.1112H26.427L28.7164 22.7558V9.23302L26.427 6.87767H5.3364ZM5.93634 10.3528L6.83096 9.45249H24.9601L25.8217 10.3543V21.6502L24.9601 22.5521H6.83096L5.93634 21.6517V10.3528ZM21.3971 14.5874C21.3971 16.3058 20.4327 17.6988 19.243 17.6988C18.0533 17.6988 17.0889 16.3058 17.0889 14.5874C17.0889 12.869 18.0533 11.476 19.243 11.476C20.4327 11.476 21.3971 12.869 21.3971 14.5874ZM12.8417 17.6988C14.0314 17.6988 14.9958 16.3058 14.9958 14.5874C14.9958 12.869 14.0314 11.476 12.8417 11.476C11.6521 11.476 10.6877 12.869 10.6877 14.5874C10.6877 16.3058 11.6521 17.6988 12.8417 17.6988ZM78.3289 13.9321L79.7361 12.5207H84.7131L86.9476 14.7657V25.1309H84.1556V15.5773L83.3823 14.8187H79.6822L78.6751 15.8111V25.1309H75.8786V15.5773L75.1053 14.8187H71.8863L70.3981 16.3051V25.1309H67.6017V12.5207H70.2363V14.2453L71.9132 12.5207H76.9442L78.3289 13.9321ZM53.0571 14.7657L55.2915 12.5207H62.9301L65.1646 14.7657V22.8858L62.9301 25.1309H55.2915L53.0571 22.8858V14.7657ZM61.5993 22.8329L62.3456 22.0742H62.3501V15.5773L61.6038 14.8187H56.6268L55.8805 15.5773V22.0742L56.6223 22.8329H61.5993ZM129.303 12.5207L127.069 14.7657V22.8858L129.303 25.1309H136.942L139.176 22.8858V14.7657L136.942 12.5207H129.303ZM136.357 22.0742L135.611 22.8329H130.634L129.887 22.0742V15.5773L130.634 14.8187H135.611L136.357 15.5773V22.0742ZM144.248 14.3996L146.109 12.5207H149.333V15.1318H145.898L144.41 16.5962V25.1309H141.613V12.5207H144.248V14.3996ZM91.6149 12.5207L89.3804 14.7657V22.8858L91.6149 25.1309H108.124L110.358 22.8858V14.7657L108.124 12.5207H91.6149ZM107.535 22.0742L106.789 22.8329H92.9412L92.1949 22.0742V15.5773L92.9412 14.8187H106.789L107.535 15.5773V22.0742ZM120.326 12.5208L121.868 14.0865V6.85742H124.66V25.1309H121.868V23.5916L120.326 25.1309H115.002L112.768 22.8859V14.7658L115.002 12.5208H120.326ZM120.38 22.833L121.868 21.373V16.3051L120.38 14.8187H116.333L115.56 15.5774V22.0743L116.333 22.833H120.38Z" fill="#476FFF"></path></svg> 