<svg width="230" height="54" viewBox="0 0 230 54" fill="none" xmlns="http://www.w3.org/2000/svg">
<path d="M70.5275 43.6043C68.3872 43.6043 66.8135 43.0378 65.8063 41.9047C64.7991 40.7464 64.2955 38.9461 64.2955 36.5036V26.8723H59.9898V24.1151H64.2955V18.6763H67.5059V24.1151H74.1156V26.8723H67.5059V36.2392C67.5059 37.8507 67.7829 39.0216 68.3369 39.7518C68.916 40.4568 69.8351 40.8094 71.0941 40.8094C72.3027 40.8094 73.5491 40.482 74.8333 39.8273L75.2109 42.509C74.6318 42.8615 73.9268 43.1259 73.0958 43.3022C72.2901 43.5036 71.434 43.6043 70.5275 43.6043ZM88.5283 43.6043C86.388 43.6043 84.5247 43.2014 82.9384 42.3957C81.3772 41.5899 80.1686 40.4442 79.3125 38.9586C78.4816 37.4479 78.0661 35.6727 78.0661 33.6331C78.0661 31.6439 78.469 29.8939 79.2747 28.3831C80.0805 26.8723 81.1884 25.6889 82.5985 24.8328C84.0085 23.9515 85.62 23.5108 87.433 23.5108C89.1452 23.5108 90.6308 23.9011 91.8898 24.6817C93.174 25.4623 94.1686 26.545 94.8736 27.9299C95.6038 29.3148 95.9689 30.9389 95.9689 32.8022C95.9689 33.1295 95.9564 33.4317 95.9312 33.7087C95.9312 33.9856 95.9186 34.2752 95.8934 34.5774H81.2388C81.4654 36.5666 82.2208 38.0899 83.5049 39.1475C84.7891 40.205 86.5139 40.7338 88.6794 40.7338C90.8952 40.7338 93.0607 40.2176 95.1758 39.1853L95.5535 41.9047C94.6974 42.4335 93.6398 42.8489 92.3808 43.1511C91.147 43.4532 89.8628 43.6043 88.5283 43.6043ZM87.2441 26.268C85.6075 26.268 84.2603 26.7842 83.2028 27.8166C82.1452 28.8238 81.5031 30.2338 81.2765 32.0468H92.8718C92.8718 31.7698 92.8466 31.5054 92.7963 31.2536C92.5948 29.6421 92.0031 28.4083 91.0211 27.5522C90.0643 26.6961 88.8053 26.268 87.2441 26.268ZM101.814 43V12.4065H105.024V43H101.814ZM120.95 43.6043C118.809 43.6043 116.946 43.2014 115.36 42.3957C113.799 41.5899 112.59 40.4442 111.734 38.9586C110.903 37.4479 110.488 35.6727 110.488 33.6331C110.488 31.6439 110.89 29.8939 111.696 28.3831C112.502 26.8723 113.61 25.6889 115.02 24.8328C116.43 23.9515 118.041 23.5108 119.854 23.5108C121.567 23.5108 123.052 23.9011 124.311 24.6817C125.595 25.4623 126.59 26.545 127.295 27.9299C128.025 29.3148 128.39 30.9389 128.39 32.8022C128.39 33.1295 128.378 33.4317 128.353 33.7087C128.353 33.9856 128.34 34.2752 128.315 34.5774H113.66C113.887 36.5666 114.642 38.0899 115.926 39.1475C117.211 40.205 118.935 40.7338 121.101 40.7338C123.317 40.7338 125.482 40.2176 127.597 39.1853L127.975 41.9047C127.119 42.4335 126.061 42.8489 124.802 43.1511C123.568 43.4532 122.284 43.6043 120.95 43.6043ZM119.666 26.268C118.029 26.268 116.682 26.7842 115.624 27.8166C114.567 28.8238 113.925 30.2338 113.698 32.0468H125.293C125.293 31.7698 125.268 31.5054 125.218 31.2536C125.016 29.6421 124.425 28.4083 123.443 27.5522C122.486 26.6961 121.227 26.268 119.666 26.268ZM142.609 52.5935C141.224 52.5935 139.864 52.4298 138.529 52.1025C137.22 51.7752 136.226 51.3723 135.546 50.8939L135.961 48.0234C136.842 48.5773 137.862 49.0054 139.021 49.3075C140.204 49.6097 141.4 49.7608 142.609 49.7608C145.001 49.7608 146.776 49.1439 147.934 47.9101C149.092 46.6763 149.672 44.7878 149.672 42.2446V39.563C148.916 40.8471 147.922 41.8417 146.688 42.5468C145.454 43.2518 144.044 43.6043 142.458 43.6043C140.72 43.6043 139.159 43.1763 137.774 42.3201C136.414 41.464 135.344 40.2806 134.564 38.7698C133.783 37.2338 133.393 35.4964 133.393 33.5576C133.393 31.6943 133.808 30.0072 134.639 28.4964C135.495 26.9605 136.641 25.7518 138.076 24.8705C139.512 23.9641 141.098 23.5108 142.835 23.5108C144.27 23.5108 145.58 23.8633 146.763 24.5684C147.972 25.2734 148.941 26.268 149.672 27.5522L149.747 24.1151H152.882V41.9047C152.882 49.0306 149.458 52.5935 142.609 52.5935ZM143.288 40.7338C144.598 40.7338 145.744 40.4317 146.726 39.8273C147.708 39.223 148.476 38.3795 149.029 37.2968C149.609 36.214 149.898 34.9676 149.898 33.5576C149.898 32.1475 149.609 30.9011 149.029 29.8184C148.476 28.7356 147.708 27.8921 146.726 27.2878C145.744 26.6835 144.598 26.3813 143.288 26.3813C142.004 26.3813 140.859 26.6835 139.851 27.2878C138.869 27.8921 138.089 28.7356 137.51 29.8184C136.956 30.9011 136.679 32.1475 136.679 33.5576C136.679 34.9676 136.956 36.214 137.51 37.2968C138.089 38.3795 138.869 39.223 139.851 39.8273C140.859 40.4317 142.004 40.7338 143.288 40.7338ZM159.686 43V24.1151H162.707L162.745 28.0432C163.274 26.7338 164.042 25.7141 165.049 24.9839C166.056 24.2285 167.202 23.8508 168.486 23.8508C168.864 23.8508 169.266 23.8885 169.695 23.9641C170.148 24.0396 170.488 24.1403 170.714 24.2662L170.374 27.2878C170.047 27.1619 169.682 27.0612 169.279 26.9856C168.876 26.8849 168.486 26.8346 168.108 26.8346C166.497 26.8346 165.225 27.4389 164.293 28.6475C163.362 29.8561 162.896 31.5432 162.896 33.7087V43H159.686ZM182.514 43.6043C180.777 43.6043 179.216 43.1763 177.831 42.3201C176.471 41.464 175.401 40.2806 174.62 38.7698C173.84 37.2338 173.449 35.4964 173.449 33.5576C173.449 31.6943 173.865 30.0072 174.696 28.4964C175.552 26.9605 176.698 25.7518 178.133 24.8705C179.568 23.9641 181.154 23.5108 182.892 23.5108C184.327 23.5108 185.636 23.8633 186.82 24.5684C188.028 25.2734 188.998 26.268 189.728 27.5522L189.804 24.1151H192.939V43H189.804L189.728 39.563C188.973 40.8471 187.978 41.8417 186.744 42.5468C185.51 43.2518 184.1 43.6043 182.514 43.6043ZM183.345 40.7338C184.654 40.7338 185.8 40.4317 186.782 39.8273C187.764 39.223 188.532 38.3795 189.086 37.2968C189.665 36.214 189.955 34.9676 189.955 33.5576C189.955 32.1475 189.665 30.9011 189.086 29.8184C188.532 28.7356 187.764 27.8921 186.782 27.2878C185.8 26.6835 184.654 26.3813 183.345 26.3813C182.061 26.3813 180.915 26.6835 179.908 27.2878C178.926 27.8921 178.145 28.7356 177.566 29.8184C177.012 30.9011 176.735 32.1475 176.735 33.5576C176.735 34.9676 177.012 36.214 177.566 37.2968C178.145 38.3795 178.926 39.223 179.908 39.8273C180.915 40.4317 182.061 40.7338 183.345 40.7338ZM200.988 43V26.8723H197.098V24.1151H200.988V21.0936C200.988 18.1727 201.631 15.9695 202.915 14.4839C204.199 12.9731 206.062 12.2177 208.505 12.2177C209.235 12.2177 209.94 12.2932 210.62 12.4443C211.3 12.5702 211.904 12.7591 212.433 13.0109L212.093 15.6925C210.96 15.2644 209.852 15.0504 208.769 15.0504C207.158 15.0504 205.987 15.554 205.256 16.5612C204.551 17.5684 204.199 19.2177 204.199 21.509V24.1151H210.091V26.8723H204.199V43H200.988Z" fill="#020A47"/>
<path fill-rule="evenodd" clip-rule="evenodd" d="M32.3034 38.6372L42.5565 36.2864C42.7145 36.2544 42.8641 36.1899 42.9958 36.0969C43.1274 36.0039 43.2383 35.8846 43.3213 35.7464C43.4043 35.6082 43.4576 35.4543 43.4778 35.2944C43.498 35.1345 43.4847 34.9721 43.4387 34.8177L39.0783 15.9059C38.9996 15.5938 38.8003 15.3257 38.5241 15.1603C38.2479 14.9949 37.9174 14.9459 37.6051 15.0238L27.3562 17.3746C27.046 17.4542 26.7799 17.6534 26.6162 17.9286C26.4524 18.2038 26.4043 18.5327 26.4825 18.8433L30.8302 37.7551C30.9089 38.0672 31.1082 38.3353 31.3844 38.5006C31.6606 38.666 31.9911 38.7151 32.3034 38.6372Z" fill="#020A47"/>
<path fill-rule="evenodd" clip-rule="evenodd" d="M28.7703 50.3235L41.2015 38.8144C41.67 38.3417 41.5518 38.0505 40.906 38.2826L32.3624 40.224C32.0091 40.3113 31.6835 40.4862 31.4157 40.7326C31.1479 40.979 30.9465 41.2889 30.8302 41.6336L28.2384 49.9732C28.0611 50.6189 28.2975 50.7962 28.7703 50.3235Z" fill="#020A47"/>
<path fill-rule="evenodd" clip-rule="evenodd" d="M6.09025 46.5673L24.7054 52.3198C25.0234 52.379 25.3522 52.3232 25.6329 52.1624C25.9136 52.0016 26.1279 51.7462 26.2377 51.4419L29.3571 41.4564C29.4022 41.3006 29.4162 41.1375 29.3982 40.9764C29.3802 40.8152 29.3305 40.6592 29.2521 40.5173C29.1737 40.3753 29.068 40.2503 28.9411 40.1493C28.8143 40.0482 28.6687 39.9732 28.5128 39.9286L9.8977 34.231C9.58257 34.1408 9.24459 34.179 8.95751 34.3371C8.67043 34.4953 8.45759 34.7606 8.36543 35.075L5.26713 45.0395C5.17511 45.3512 5.20997 45.6867 5.36413 45.9728C5.5183 46.259 5.77927 46.4726 6.09025 46.5673Z" fill="#020A47"/>
<path fill-rule="evenodd" clip-rule="evenodd" d="M0.0792906 26.1277L3.85297 42.6507C3.97116 43.2965 4.27508 43.2965 4.43971 42.6507L7.03148 34.3111C7.11979 33.9558 7.12341 33.5847 7.04203 33.2277C6.96064 32.8707 6.79654 32.5378 6.56293 32.2558L0.611152 25.8323C0.197482 25.3469 -0.11066 25.482 0.0792906 26.1277Z" fill="#020A47"/>
<path fill-rule="evenodd" clip-rule="evenodd" d="M14.6338 8.46517L0.374854 21.6625C0.146094 21.8802 0.0117872 22.1789 0.000739528 22.4945C-0.0103081 22.8101 0.102784 23.1175 0.315758 23.3507L7.44523 31.0614C7.66493 31.2944 7.96774 31.4314 8.28786 31.4424C8.60797 31.4535 8.91951 31.3378 9.15479 31.1205L23.4095 17.9021C23.6403 17.6855 23.776 17.3864 23.787 17.0702C23.7981 16.7539 23.6836 16.4461 23.4686 16.2139L16.3518 8.50737C16.2423 8.39087 16.1108 8.29728 15.9649 8.23201C15.8189 8.16675 15.6614 8.13112 15.5016 8.1272C15.3418 8.12327 15.1828 8.15112 15.0338 8.20914C14.8848 8.26716 14.7489 8.35418 14.6338 8.46517Z" fill="#020A47"/>
<path fill-rule="evenodd" clip-rule="evenodd" d="M28.4158 38.3417C29.0659 38.519 29.4753 38.1687 29.3022 37.4976L25.1782 19.6452C25.0009 18.9994 24.4691 18.8222 24.0005 19.2907L10.5689 31.7663C10.0962 32.2347 10.2143 32.7623 10.8602 32.9396L28.4158 38.3417Z" fill="#020A47"/>
<path fill-rule="evenodd" clip-rule="evenodd" d="M35.427 13.4411L19.1672 8.46523C18.5214 8.28797 18.4032 8.52432 18.9309 9.05187L24.8826 15.4543C25.1496 15.7038 25.4725 15.8858 25.8243 15.9849C26.1761 16.084 26.5465 16.0975 26.9046 16.024L35.4481 14.0869C36.077 13.9096 36.077 13.6142 35.427 13.4411Z" fill="#020A47"/>
<path d="M220.623 17.93V13.913H219.128V13.12H223.028V13.913H221.546V17.93H220.623ZM223.86 17.93L224.107 13.12H225.004L226.473 16.175L227.968 13.12H228.865L229.112 17.93H228.293L228.137 14.368L226.811 17.098H226.161L224.822 14.342L224.679 17.93H223.86Z" fill="#020A47"/>
</svg>
