<svg xmlns="http://www.w3.org/2000/svg" xmlns:xlink="http://www.w3.org/1999/xlink" id="Layer_1" x="0px" y="0px" viewBox="0 0 115.3 26.4" style="enable-background:new 0 0 115.3 26.4;" xml:space="preserve"><style type="text/css">	.st0{fill:#000D33;}</style><g>	<path class="st0" d="M45.2,25.4h6.2c0.1,0,0.2,0,0.2-0.1c0.1,0,0.1-0.1,0.2-0.2c0-0.1,0.1-0.1,0-0.2c0-0.1,0-0.2-0.1-0.2l-5.4-7.7  c0,0,0-0.1,0-0.1c0,0,0-0.1,0-0.1c0,0,0-0.1,0-0.1c0,0,0.1-0.1,0.1-0.1c1.2-0.5,2.3-1.4,3-2.5c0.9-1.4,1.3-3,1.3-4.6V9  c0.1-1.6-0.4-3.3-1.3-4.6c-0.9-1.3-2.1-2.3-3.6-2.8c-1.8-0.7-3.6-1-5.5-1h-9.8c-0.1,0-0.2,0-0.3,0.1c-0.1,0.1-0.1,0.2-0.1,0.3v24  c0,0.1,0,0.1,0,0.2c0,0.1,0.1,0.1,0.1,0.1c0,0,0.1,0.1,0.1,0.1c0.1,0,0.1,0,0.2,0h5.4c0.1,0,0.2,0,0.3-0.1c0.1-0.1,0.1-0.2,0.1-0.3  v-6.7c0-0.1,0-0.2,0.1-0.3c0.1-0.1,0.2-0.1,0.3-0.1h2.9c0.1,0,0.1,0,0.2,0c0.1,0,0.1,0.1,0.2,0.1l4.8,7.2c0,0.1,0.1,0.1,0.1,0.1  C45,25.4,45.1,25.4,45.2,25.4z M36.4,6.3c0-0.1,0-0.2,0.1-0.3c0.1-0.1,0.2-0.1,0.3-0.1h3.9c0.7,0,1.3,0.1,1.9,0.4  c0.5,0.3,1,0.7,1.3,1.3c0.3,0.6,0.5,1.3,0.5,1.9c0,0.7-0.1,1.3-0.5,1.9c-0.3,0.5-0.7,1-1.3,1.2c-0.6,0.3-1.3,0.5-1.9,0.4h-3.9  c-0.1,0-0.2,0-0.3-0.1c-0.1-0.1-0.1-0.2-0.1-0.3V6.3z"></path>	<path class="st0" d="M74.9,0.8c-0.1,0-0.2,0-0.2,0.1c-0.1,0-0.1,0.1-0.2,0.2l-5.1,12.4c0,0,0,0.1-0.1,0.1c0,0-0.1,0-0.1,0  c0,0-0.1,0-0.1,0c0,0,0,0-0.1-0.1L63.9,1.1c0-0.1-0.1-0.1-0.2-0.2c-0.1,0-0.2-0.1-0.2-0.1h-8c-0.1,0-0.2,0-0.3,0.1  c-0.1,0.1-0.1,0.2-0.1,0.3V25c0,0.1,0,0.1,0,0.2c0,0.1,0.1,0.1,0.1,0.1c0,0,0.1,0.1,0.1,0.1c0.1,0,0.1,0,0.2,0h4.9  c0.1,0,0.2,0,0.3-0.1c0.1-0.1,0.1-0.2,0.1-0.3V8.4c0-0.1,0-0.1,0.1-0.2c0,0,0.1-0.1,0.1-0.1c0.1,0,0.1,0,0.2,0  c0.1,0,0.1,0.1,0.1,0.1l4.7,11.9c0,0.1,0.1,0.1,0.2,0.2c0.1,0,0.2,0.1,0.2,0.1h5.1c0.1,0,0.2,0,0.2-0.1c0.1,0,0.1-0.1,0.2-0.2  l4.8-12c0-0.1,0.1-0.1,0.1-0.1C76.9,8,77,8,77,8c0.1,0,0.1,0,0.1,0.1c0,0,0.1,0.1,0.1,0.2V25c0,0.1,0,0.2,0.1,0.3  c0.1,0.1,0.2,0.1,0.3,0.1H83c0.1,0,0.1,0,0.2,0c0.1,0,0.1-0.1,0.1-0.1c0,0,0.1-0.1,0.1-0.1c0-0.1,0-0.1,0-0.2V1.2  c0-0.1,0-0.2-0.1-0.3c-0.1-0.1-0.2-0.1-0.3-0.1H74.9z"></path>	<path class="st0" d="M100.6,26.1c-2,0-4-0.3-5.9-1.2c-1.6-0.7-3-1.8-4.2-3.1c-1.1-1.2-1.9-2.6-2.5-4.1c-0.5-1.4-0.8-2.8-0.8-4.3  v-0.7c0-1.6,0.3-3.1,0.8-4.6c0.6-1.6,1.5-3,2.6-4.2s2.5-2.2,4.1-2.8c3.7-1.4,7.8-1.4,11.5,0c1.6,0.7,3,1.7,4.2,2.9  c2.2,2.4,3.4,5.4,3.4,8.6v0.7c0,1.5-0.3,2.9-0.8,4.3c-0.6,1.5-1.4,2.9-2.5,4.1c-1.2,1.3-2.6,2.4-4.2,3.1  C104.5,25.8,102.5,26.2,100.6,26.1z M100.6,20.2c1,0,2-0.2,2.9-0.5c0.8-0.3,1.6-0.9,2.2-1.5c0.6-0.7,1.1-1.4,1.4-2.3  c0.3-0.9,0.5-1.9,0.5-2.8c0-1-0.2-2-0.5-2.9c-0.3-0.9-0.8-1.6-1.4-2.3c-0.6-0.6-1.4-1.1-2.2-1.5c-0.9-0.4-1.9-0.5-2.9-0.5  c-1,0-2,0.2-2.9,0.5c-0.8,0.3-1.6,0.8-2.2,1.5c-0.6,0.6-1.1,1.4-1.4,2.3c-0.3,0.9-0.5,1.9-0.5,3c0,1,0.2,1.9,0.5,2.8  c0.3,0.8,0.8,1.6,1.4,2.3c0.6,0.7,1.4,1.2,2.2,1.5C98.6,20.1,99.6,20.3,100.6,20.2z"></path>	<path class="st0" d="M18.8,0.8H9.4c-0.1,0-0.2,0-0.3,0.1C9,0.9,9,1,9,1.1L1.3,24.9c0,0.1,0,0.1,0,0.2c0,0.1,0,0.1,0.1,0.2  c0,0.1,0.1,0.1,0.2,0.1c0.1,0,0.1,0,0.2,0h25c0.1,0,0.1,0,0.2,0c0.1,0,0.1-0.1,0.1-0.1c0-0.1,0.1-0.1,0.1-0.2c0-0.1,0-0.1,0-0.2  L19.2,1.1c0-0.1-0.1-0.2-0.2-0.2C19,0.8,18.9,0.8,18.8,0.8z M9.2,19.8l4.2-13.6c0-0.1,0.1-0.2,0.2-0.2c0.1-0.1,0.2-0.1,0.3-0.1h0.6  c0.1,0,0.2,0,0.3,0.1c0.1,0.1,0.1,0.1,0.2,0.2l4.3,13.6c0,0.1,0,0.1,0,0.2s0,0.1-0.1,0.2c0,0-0.1,0.1-0.1,0.1c-0.1,0-0.1,0-0.2,0  H9.6c-0.1,0-0.1,0-0.2,0c-0.1,0-0.1-0.1-0.2-0.1c0-0.1-0.1-0.1-0.1-0.2C9.2,19.9,9.2,19.8,9.2,19.8z"></path>	<path class="st0" d="M18.8,0.8H9.4c-0.1,0-0.2,0-0.3,0.1C9,0.9,9,1,9,1.1L1.3,24.9c0,0.1,0,0.1,0,0.2c0,0.1,0,0.1,0.1,0.2  c0,0.1,0.1,0.1,0.2,0.1c0.1,0,0.1,0,0.2,0h25c0.1,0,0.1,0,0.2,0c0.1,0,0.1-0.1,0.1-0.1c0-0.1,0.1-0.1,0.1-0.2c0-0.1,0-0.1,0-0.2  L19.2,1.1c0-0.1-0.1-0.2-0.2-0.2C19,0.8,18.9,0.8,18.8,0.8z M9.2,19.8l4.2-13.6c0-0.1,0.1-0.2,0.2-0.2c0.1-0.1,0.2-0.1,0.3-0.1h0.6  c0.1,0,0.2,0,0.3,0.1c0.1,0.1,0.1,0.1,0.2,0.2l4.3,13.6c0,0.1,0,0.1,0,0.2s0,0.1-0.1,0.2c0,0-0.1,0.1-0.1,0.1c-0.1,0-0.1,0-0.2,0  H9.6c-0.1,0-0.1,0-0.2,0c-0.1,0-0.1-0.1-0.2-0.1c0-0.1-0.1-0.1-0.1-0.2C9.2,19.9,9.2,19.8,9.2,19.8z"></path></g></svg>