<?xml version="1.0" encoding="UTF-8"?><svg xmlns="http://www.w3.org/2000/svg" viewBox="0 0 221.05 221.05"><defs><style>.f{fill:#131226;}.g{fill:#fae1b6;}.h{fill:#40b9bc;}.i{fill:#0d2b3c;}.j{fill:#fcc009;}.k{fill:#ef7b1a;}.l{fill:#be1d43;}.m{fill:#fefad8;}</style></defs><g id="a"/><g id="b"/><g id="c"/><g id="d"/><g id="e"><g><circle class="f" cx="110.52" cy="110.52" r="110.52"/><circle class="i" cx="110.52" cy="110.52" r="94.83" transform="translate(-45.78 110.52) rotate(-45)"/><path class="h" d="M17.52,91.92c-1.2,6.02-1.83,12.24-1.83,18.61,0,1.68,.05,3.35,.13,5.01,5.83,.1,10.85-1.08,14.34-4.12,17.32-15.09,50.09-10.81,50.09-10.81,0,0-10.06-17.37-62.73-8.68Z"/><path class="l" d="M26.79,65.98c49.05-15.09,61.61,10.14,64.23,18.28,0,0,3-46.05-34.78-51.5-12.25,8.57-22.38,19.95-29.46,33.22Z"/><path class="k" d="M110.14,71.09s5.13-32.28,14.23-54.39c-4.52-.66-9.14-1.01-13.85-1.01-4.95,0-9.82,.38-14.57,1.11,9.07,22.1,14.18,54.29,14.18,54.29Z"/><path class="l" d="M164.68,32.67c-38.46,5.02-35.42,51.59-35.42,51.59,2.64-8.19,15.34-33.68,65.15-18-7.1-13.43-17.34-24.95-29.73-33.59Z"/><path class="h" d="M203.55,92.05c-53.36-9-63.52,8.55-63.52,8.55,0,0,32.77-4.28,50.09,10.81,3.64,3.17,8.95,4.32,15.11,4.1,.09-1.65,.13-3.31,.13-4.98,0-6.32-.62-12.5-1.81-18.48Z"/><path class="j" d="M110.52,205.36c2.64,0,5.25-.11,7.83-.32-6.26-10.86-6.61-27.39-6.61-37.61,0,0,6.27,27.9,13.92,36.73,25.54-4.1,47.67-18.39,62.09-38.58-2.65-2.52-8.45-5.97-16.36,1.2,0,0,3.48-13.76,19.12-7.33-2.89-7.66-10.53-12.99-19.35-12.32-9.37,.72-16.95,8.43-17.55,17.8-.31,4.87,1.22,9.36,3.94,12.88-4.92,.93-9.16,3.75-11.96,7.67-.74-4.54-4.66-8.01-9.41-8.01-2.15,0-4.12,.72-5.72,1.92-2.11-1.73-4.41-4.43-6.7-7.86-6.03-9.05-8.65-22.83-9.64-30.72-.25-2-1.95-3.49-3.96-3.49s-3.71,1.49-3.96,3.49c-1,7.89-4.3,21.67-10.33,30.72-7.7,11.54-13.08,12.7-16.29,0h-.06c-2.7-9.54-11.46-16.55-21.87-16.55-9.72,0-17.98,6.11-21.23,14.69,3.31,4.14,6.96,8,10.9,11.53,11.85-10.24,21.87,3.67,21.87,3.67-8.52-3.91-14.35-2.85-18.19-.54,11.38,9.2,24.93,15.81,39.77,18.96,6.19-7.11,12.15-20.35,12.15-20.35,0,4.48-2.58,14.9-6.4,21.38,4.58,.68,9.26,1.03,14.03,1.03Z"/><path class="m" d="M113.18,81.77c-.81-.9-1.93-1.35-3.04-1.35-1.11,0-2.23,.45-3.04,1.35-21.48,23.79-26.75,55.73-20.57,59.97,6.46,4.44,14.53-14.93,23.21-15.13h.81c8.68,.2,16.75,19.57,23.21,15.13,6.18-4.25,.91-36.19-20.57-59.97Zm-3.04,31.57c-3.52,0-6.37-2.85-6.37-6.37s2.85-6.37,6.37-6.37c3.52,0,6.37,2.85,6.37,6.37s-2.85,6.37-6.37,6.37Z"/><path class="g" d="M107.1,81.77c.81-.9,1.93-1.35,3.04-1.35v20.18c-3.52,0-6.37,2.85-6.37,6.37s2.85,6.37,6.37,6.37v13.27h-.4c-8.68,.2-16.75,19.57-23.21,15.13-6.18-4.25-.91-36.19,20.57-59.97Z"/></g></g></svg>