<svg width="256" height="256" viewBox="0 0 256 256" fill="none" xmlns="http://www.w3.org/2000/svg">
<path d="M128 0C57.3076 0 0 57.3078 0 128C0 198.693 57.3076 256 128 256C198.692 256 256 198.693 256 128C256 57.3078 198.692 0 128 0ZM94.3656 183.597L67.6313 215.142V71.5823C67.6368 62.7106 74.8308 55.5213 83.7023 55.5205L151.394 55.5077C148.181 59.5947 144.928 63.6611 141.753 67.6294C137.9 72.4457 133.925 77.4136 130.051 82.3837H94.3656V183.597ZM170.029 191.927C165.792 187.041 160.917 181.478 155.975 175.839C146.331 164.834 136.359 153.454 130.472 146.359L128.347 143.8L126.194 146.336C119.57 154.14 112.841 161.97 106.369 169.47V130.476C122.6 110.434 147.632 79.2713 166.596 55.5009H202.97C184.118 77.1445 164.749 99.4761 145.97 122.549L144.498 124.356L146.014 126.128C148.247 128.736 189.785 176.666 203.012 191.927H170.029Z" fill="#23282D"/>
</svg>
