<svg width="202" height="240" viewBox="0 0 202 240" fill="none" xmlns="http://www.w3.org/2000/svg">
<path d="M92.9316 40.7565H39.9328V192.488L0.227539 239.778V24.5637C0.235587 11.2643 10.9201 0.486721 24.0959 0.485638L124.63 0.466413C119.859 6.59312 115.027 12.6894 110.311 18.6384C104.589 25.8583 98.6853 33.306 92.9316 40.7565ZM114.388 103.68L116.574 100.969C144.464 66.3807 173.23 32.9022 201.229 0.456394H147.208C119.043 36.091 81.8654 82.8076 57.76 112.854V171.31C67.3715 160.066 77.3662 148.328 87.2034 136.63L90.401 132.827L93.5574 136.665C102.3 147.301 117.111 164.36 131.434 180.858C138.773 189.312 146.013 197.651 152.307 204.976H201.292C181.648 182.098 119.956 110.244 116.64 106.335L114.388 103.68Z" fill="#23282D"/>
</svg>
