<?xml version="1.0" encoding="UTF-8"?>
<svg xmlns="http://www.w3.org/2000/svg" width="230" height="208" viewBox="0 0 230 208" fill="none">
  <path d="M206.517 83.2331L205.002 80.664C203.672 78.4303 201.765 76.5756 199.471 75.2852C197.177 73.9947 194.576 73.3134 191.928 73.3092H146.738C144.559 73.3142 142.406 73.7779 140.428 74.6685C138.449 75.5592 136.69 76.8559 135.272 78.4701C134.674 79.1533 134.139 79.8876 133.676 80.664L124.703 95.8624L111.116 118.836C111.069 118.91 111.026 118.985 110.987 119.064C109.731 121.287 109.083 123.788 109.105 126.327C109.127 128.865 109.82 131.355 111.116 133.557L133.699 171.729C134.921 173.785 136.633 175.522 138.69 176.794C140.747 178.067 143.088 178.837 145.515 179.039H58.8761C56.4839 179.046 54.1314 178.442 52.0538 177.285C49.9762 176.128 48.2462 174.459 47.0368 172.445L1.83562 96.1693C0.633269 94.1494 0 91.8551 0 89.5193C0 87.1835 0.633269 84.8893 1.83562 82.8693L47.0368 6.65002C48.2389 4.62589 49.9657 2.94589 52.0438 1.77864C54.1219 0.611396 56.4782 -0.00202799 58.8761 5.03704e-06H149.279C151.675 -0.00118398 154.029 0.612699 156.105 1.77996C158.181 2.94723 159.906 4.62679 161.106 6.65002L203.336 77.8335L206.331 82.8693C206.404 82.9846 206.467 83.1064 206.517 83.2331Z" fill="#2916FC"></path>
  <path d="M98.83 43.1954V131.464C98.83 132.67 98.339 133.827 97.4648 134.68C96.5907 135.532 95.4051 136.011 94.1689 136.011H76.9111C75.6749 136.011 74.4893 135.532 73.6152 134.68C72.7411 133.827 72.25 132.67 72.25 131.464V43.1954C72.25 41.9895 72.7411 40.833 73.6152 39.9802C74.4893 39.1275 75.6749 38.6484 76.9111 38.6484H94.2038C95.434 38.6574 96.6106 39.1405 97.4772 39.9922C98.3438 40.844 98.8301 41.9954 98.83 43.1954ZM146.886 45.719L123.394 79.7193C122.908 80.4281 122.636 81.2558 122.61 82.108C122.583 82.9603 122.802 83.8027 123.243 84.5392L150.219 129.168C150.626 129.856 150.842 130.637 150.844 131.432C150.845 132.227 150.633 133.008 150.229 133.698C149.825 134.389 149.242 134.963 148.539 135.365C147.836 135.767 147.037 135.982 146.222 135.989H126.634C125.809 135.984 124.999 135.766 124.289 135.357C123.579 134.947 122.992 134.361 122.59 133.658L95.7887 86.5285C95.3897 85.8184 95.1923 85.0174 95.2169 84.208C95.2414 83.3986 95.4871 82.6104 95.9285 81.9246L122.66 40.7855C123.08 40.1468 123.657 39.6208 124.339 39.2555C125.021 38.8901 125.786 38.6971 126.564 38.6939H143.006C143.843 38.6988 144.662 38.9232 145.38 39.3437C146.097 39.7643 146.685 40.3654 147.082 41.084C147.479 41.8025 147.67 42.6121 147.635 43.4276C147.601 44.2432 147.342 45.0347 146.886 45.719Z" fill="#FEFEFF"></path>
  <path d="M200.289 104.973L165.949 162.993H147.572L130.78 134.62L125.805 126.219L134.323 111.839L141.291 100.04L147.572 89.4453H191.107L200.289 104.973Z" fill="url(#paint0_linear_6090_3211)"></path>
  <path opacity="0.68" d="M145.134 136.314H128.634L127.562 134.495L122.586 126.094L131.104 111.714L134.693 105.633L149.131 129.505C149.536 130.193 149.749 130.972 149.749 131.765C149.749 132.559 149.537 133.338 149.133 134.027C148.729 134.715 148.147 135.288 147.446 135.689C146.744 136.091 145.947 136.306 145.134 136.314Z" fill="#FEFEFF"></path>
  <path d="M228.833 121.758C228.51 120.751 228.072 119.783 227.528 118.871L208.546 86.837L206.425 83.2676L204.91 80.6985C203.58 78.4648 201.672 76.6102 199.378 75.3197C197.084 74.0292 194.484 73.3479 191.835 73.3438H146.681C144.501 73.3488 142.349 73.8124 140.37 74.703C138.391 75.5937 136.633 76.8904 135.214 78.5046C134.616 79.1878 134.082 79.9221 133.618 80.6985L124.645 95.8969L111.058 118.871C111.011 118.944 110.968 119.02 110.93 119.098C109.673 121.321 109.025 123.823 109.047 126.361C109.07 128.9 109.762 131.39 111.058 133.592L133.641 171.764C134.863 173.819 136.575 175.557 138.632 176.829C140.689 178.101 143.03 178.871 145.457 179.073C145.865 179.073 146.285 179.13 146.704 179.13H191.894C192.388 179.131 192.882 179.105 193.374 179.05L209.419 204.059C210.338 205.474 211.793 206.479 213.466 206.853C215.14 207.228 216.898 206.943 218.357 206.06L219.324 205.469C220.779 204.576 221.814 203.159 222.202 201.526C222.591 199.893 222.302 198.176 221.399 196.75L205.085 171.434L227.493 133.58C228.544 131.808 229.205 129.842 229.436 127.806C229.667 125.771 229.461 123.712 228.833 121.758ZM207.858 134.547L191.008 162.965H147.508L147.403 162.783L130.728 134.592L125.752 126.18L134.271 111.8L141.262 100.012L147.427 89.5993H191.171L200.26 104.945L212.834 126.18L207.858 134.547Z" fill="#1C0DC9"></path>
  <defs>
    <linearGradient id="paint0_linear_6090_3211" x1="125.805" y1="126.219" x2="200.289" y2="126.219" gradientUnits="userSpaceOnUse">
      <stop stop-color="#FF7879"></stop>
      <stop offset="0.21" stop-color="#FC777B"></stop>
      <stop offset="0.36" stop-color="#F27281"></stop>
      <stop offset="0.5" stop-color="#E26B8A"></stop>
      <stop offset="0.63" stop-color="#CB6098"></stop>
      <stop offset="0.75" stop-color="#AE52AA"></stop>
      <stop offset="0.86" stop-color="#8A41C0"></stop>
      <stop offset="0.98" stop-color="#602EDA"></stop>
      <stop offset="1" stop-color="#5529E0"></stop>
    </linearGradient>
  </defs>
</svg>
