<?xml version="1.0" standalone="no"?>
<!DOCTYPE svg PUBLIC "-//W3C//DTD SVG 20010904//EN"
 "http://www.w3.org/TR/2001/REC-SVG-20010904/DTD/svg10.dtd">
<svg
  version="1.0"
  xmlns="http://www.w3.org/2000/svg"
  width="700.000000pt"
  height="700.000000pt"
  viewBox="0 0 700.000000 700.000000"
  preserveAspectRatio="xMidYMid meet"
>
  <metadata
  >
Created by potrace 1.14, written by Peter Selinger 2001-2017
</metadata>
  <g
    transform="translate(0.000000,700.000000) scale(0.100000,-0.100000)"
    fill="#000000"
    stroke="none"
  >
    <path
      d="M3387 6124 c-1 -1 -43 -5 -93 -8 -50 -4 -100 -8 -111 -10 -11 -3 -44
-7 -74 -11 -48 -6 -89 -13 -169 -31 -64 -13 -189 -47 -263 -71 -162 -51 -428
-174 -529 -244 -14 -11 -29 -19 -33 -19 -7 0 -114 -74 -201 -139 -347 -261
-642 -635 -819 -1038 -46 -105 -128 -342 -138 -398 -3 -16 -8 -39 -11 -50 -13
-56 -35 -165 -40 -205 -3 -25 -8 -55 -10 -68 -24 -120 -24 -533 0 -672 2 -14
7 -41 10 -60 88 -554 338 -1050 729 -1444 114 -115 298 -268 405 -337 142 -92
183 -115 314 -179 78 -37 152 -71 166 -75 14 -4 39 -13 55 -21 84 -37 373
-117 470 -130 22 -2 67 -9 100 -14 232 -36 581 -29 815 15 33 6 68 13 105 21
86 17 291 80 394 120 347 137 661 347 930 623 274 281 509 677 612 1028 18 60
34 115 37 123 9 26 10 33 36 160 37 187 49 309 49 500 0 122 -9 294 -19 345
-2 10 -6 37 -9 60 -46 319 -169 665 -338 945 -52 85 -106 168 -131 202 -12 14
-32 41 -46 59 -56 75 -150 179 -241 270 -432 428 -1005 692 -1618 745 -68 6
-329 12 -334 8z"
    />
  </g>
</svg>
