<svg width="121" height="24" fill="none" xmlns="http://www.w3.org/2000/svg"><path fill-rule="evenodd" clip-rule="evenodd" d="M13.894.229a.49.49 0 0 1 .389.325l.017.062.584 2.998a9.175 9.175 0 0 1 2.189 1.204l.245.19 2.949-1.007c.19-.082.393-.023.536.14 1.014 1.137 1.838 2.509 2.316 3.95a.432.432 0 0 1-.091.484l-.052.043-2.34 1.99c.084.445.108.926.108 1.394 0 .377-.016.759-.065 1.124l-.043.271 2.34 1.992a.43.43 0 0 1 .143.527c-.477 1.442-1.3 2.812-2.315 3.948-.128.146-.302.209-.473.163l-.064-.022-2.948-1.008c-.647.521-1.37.95-2.142 1.276l-.292.118-.585 3a.492.492 0 0 1-.406.387c-.764.14-1.528.222-2.315.222-.788 0-1.552-.082-2.316-.222a.492.492 0 0 1-.39-.325l-.016-.062-.584-3a8.87 8.87 0 0 1-2.22-1.221l-.215-.173-2.948 1.008c-.19.082-.393.023-.537-.141C1.338 18.728.515 17.358.038 15.916a.433.433 0 0 1 .091-.484l.052-.043 2.339-1.992a7.673 7.673 0 0 1-.108-1.395c0-.374.015-.757.064-1.123l.044-.27L.18 8.618a.43.43 0 0 1-.143-.527c.477-1.441 1.3-2.813 2.315-3.95a.466.466 0 0 1 .473-.162L2.89 4l2.948 1.007a8.571 8.571 0 0 1 2.17-1.288l.265-.106.584-2.998a.49.49 0 0 1 .406-.387 11.825 11.825 0 0 1 4.63 0Zm65.404 8.039c.59 0 1.135.128 1.636.385a3.75 3.75 0 0 1 1.298 1.114c.364.486.649 1.08.856 1.783.207.704.31 1.501.31 2.394 0 .835-.117 1.606-.354 2.313a5.779 5.779 0 0 1-.992 1.842 4.555 4.555 0 0 1-1.527 1.22 4.382 4.382 0 0 1-1.968.44c-.59 0-1.084-.082-1.483-.246a4.038 4.038 0 0 1-1.091-.664v4.262h-3.38V8.481h2.093l.103.005a.891.891 0 0 1 .426.135.744.744 0 0 1 .3.418l.25.814.167-.173c.17-.169.35-.325.537-.47a4.5 4.5 0 0 1 2.82-.942Zm-29.745.385a5.92 5.92 0 0 0-2.055-.342c-.866 0-1.642.146-2.329.439a5.3 5.3 0 0 0-1.756 1.188 5.183 5.183 0 0 0-1.112 1.746 5.771 5.771 0 0 0-.387 2.11c0 .985.15 1.849.453 2.591.301.743.712 1.364 1.232 1.864s1.127.876 1.821 1.13c.694.253 1.438.38 2.23.38.386 0 .79-.027 1.216-.08.425-.054.85-.15 1.276-.29.425-.139.84-.331 1.243-.578.346-.21.672-.476.978-.794l.151-.164-.981-1.189c-.139-.193-.342-.29-.611-.29-.204 0-.398.047-.583.14-.186.093-.39.196-.611.31a5.16 5.16 0 0 1-.758.311c-.284.093-.622.14-1.014.14-.735 0-1.335-.21-1.8-.627-.434-.39-.713-1.002-.837-1.837l-.024-.182h6.521c.153 0 .278-.018.376-.053a.455.455 0 0 0 .235-.193.954.954 0 0 0 .12-.375c.022-.157.033-.36.033-.61 0-.8-.126-1.516-.377-2.148a4.538 4.538 0 0 0-1.047-1.6 4.48 4.48 0 0 0-1.603-.997Zm16.026-.342a5.92 5.92 0 0 1 2.056.342 4.48 4.48 0 0 1 1.603.996c.447.436.796.97 1.047 1.601.25.632.376 1.348.376 2.148 0 .25-.01.453-.033.61a.954.954 0 0 1-.12.375.454.454 0 0 1-.234.193 1.116 1.116 0 0 1-.376.053h-6.522l.024.182c.124.835.403 1.447.838 1.837.465.418 1.065.626 1.8.626.392 0 .73-.046 1.013-.139a5.16 5.16 0 0 0 .758-.31c.222-.115.426-.218.611-.31.185-.094.38-.14.583-.14.27 0 .473.096.611.289l.982 1.189-.152.164a4.884 4.884 0 0 1-.977.794c-.404.247-.818.44-1.243.579a6.84 6.84 0 0 1-1.276.289c-.426.053-.83.08-1.216.08a6.452 6.452 0 0 1-2.23-.38 5.137 5.137 0 0 1-1.822-1.13c-.52-.5-.93-1.12-1.232-1.863-.302-.743-.453-1.607-.453-2.592 0-.743.13-1.446.388-2.11a5.183 5.183 0 0 1 1.112-1.746A5.3 5.3 0 0 1 63.25 8.75c.687-.293 1.463-.44 2.328-.44Zm27.013.396c-.705-.264-1.486-.396-2.344-.396-.866 0-1.653.132-2.362.396a5.257 5.257 0 0 0-1.832 1.135 5.031 5.031 0 0 0-1.188 1.794c-.28.703-.42 1.494-.42 2.372 0 .885.14 1.683.42 2.394.28.71.676 1.313 1.188 1.81a5.281 5.281 0 0 0 1.832 1.145c.71.268 1.496.402 2.362.402.858 0 1.64-.134 2.344-.402a5.179 5.179 0 0 0 1.816-1.145c.505-.497.898-1.1 1.178-1.81.28-.71.42-1.509.42-2.394 0-.878-.14-1.669-.42-2.372a5.105 5.105 0 0 0-1.178-1.794 5.155 5.155 0 0 0-1.816-1.135Zm18.311-3.449v3.245h2.748v2.27h-2.748v5.516l.004.108c.015.209.078.386.187.53.127.167.31.251.55.251a1.097 1.097 0 0 0 .529-.123c.062-.032.12-.06.175-.086a.452.452 0 0 1 .191-.037.4.4 0 0 1 .245.07c.062.046.125.119.191.219L114 18.795l-.166.117a4.743 4.743 0 0 1-1.306.606c-.546.16-1.109.241-1.691.241-.538 0-1.012-.077-1.423-.23a2.832 2.832 0 0 1-1.036-.654 2.783 2.783 0 0 1-.638-1.022 3.904 3.904 0 0 1-.218-1.339v-5.74h-.96l-.085-.005a.636.636 0 0 1-.362-.161c-.123-.11-.185-.273-.185-.488V8.825l1.799-.343.666-2.71.025-.082c.104-.288.343-.432.716-.432h1.767ZM41.129 6.854v-2.87H28.5v2.87h4.471v12.734h3.686V6.854h4.472ZM58.01 3.556v16.032H54.63V3.556h3.38Zm47.352 5.076c-.313-.243-.727-.364-1.243-.364-.611 0-1.175.182-1.691.546a5.324 5.324 0 0 0-1.256 1.284l-.14.204-.185-1.038a2.131 2.131 0 0 0-.104-.364.574.574 0 0 0-.174-.241.747.747 0 0 0-.284-.134 1.51 1.51 0 0 0-.3-.04l-.12-.003H97.86v11.106h3.38v-6.812c.509-.928 1.207-1.392 2.094-1.392.255 0 .466.016.633.048.167.032.312.049.436.049.145 0 .262-.03.349-.091a.422.422 0 0 0 .154-.232l.021-.084.436-2.442ZM11.578 4.978C7.69 4.978 4.542 8.122 4.542 12s3.15 7.022 7.036 7.022c3.886 0 7.036-3.144 7.036-7.022s-3.15-7.022-7.037-7.022Zm65.872 5.898c.2-.047.423-.07.67-.07.27 0 .513.053.731.16.218.108.406.284.562.53.156.247.278.57.365.97.087.4.131.892.131 1.478 0 .614-.055 1.135-.163 1.563-.11.429-.26.777-.453 1.045-.193.267-.42.462-.682.583a2.023 2.023 0 0 1-.861.182c-.327 0-.64-.055-.938-.166a2.056 2.056 0 0 1-.719-.47l-.11-.113v-4.713a4.87 4.87 0 0 1 .436-.455 2.11 2.11 0 0 1 .475-.326c.17-.086.356-.152.556-.198Zm12.798-.102c-.8 0-1.385.268-1.756.803s-.556 1.353-.556 2.453c0 1.099.185 1.918.556 2.457.37.54.956.809 1.756.809.777 0 1.35-.27 1.717-.809s.55-1.358.55-2.457c0-1.1-.183-1.918-.55-2.453-.367-.536-.94-.803-1.717-.803Zm-74.217.25v-2.09H7.125v2.09h3.393v5.02h2.12v-5.02h3.393Zm31.532-.422c-.647 0-1.152.18-1.516.541-.363.36-.603.88-.72 1.558h4.22a2.88 2.88 0 0 0-.103-.77 1.856 1.856 0 0 0-.338-.67 1.716 1.716 0 0 0-.616-.476c-.255-.122-.564-.183-.927-.183Zm16.566.541c.363-.36.868-.54 1.515-.54.364 0 .673.06.927.181.255.122.46.28.617.477.156.196.269.42.338.67.069.25.103.506.103.77h-4.22c.116-.678.356-1.197.72-1.558Z" fill="currentColor"></path></svg>
