<svg width="256" xmlns="http://www.w3.org/2000/svg" height="256" fill="none"><g class="fills"><rect rx="0" ry="0" width="256" height="256" transform="matrix(1.000000, 0.000000, 0.000000, 1.000000, 0.000000, 0.000000)" class="frame-background"/></g><g style="fill: rgb(0, 0, 0);" class="frame-children"><defs><linearGradient id="a" x1=".204" y1=".146" x2=".847" y2=".882"><stop offset="0" stop-color="#5f5ed7"/><stop offset="1" stop-color="#00ceff"/></linearGradient><pattern patternUnits="userSpaceOnUse" x="32" y="32" width="192" height="192" patternTransform="matrix(1.000000, 0.000000, 0.000000, 1.000000, 0.000000, 0.000000)" id="b"><rect width="192" height="192" style="fill: url(&quot;#a&quot;);"/></pattern></defs><path d="M128.000,32.000C74.981,32.000,32.000,74.981,32.000,128.000C32.000,181.019,74.981,224.000,128.000,224.000C181.019,224.000,224.000,181.019,224.000,128.000C224.000,74.981,181.019,32.000,128.000,32.000ZZM102.774,169.698L82.724,193.357L82.724,85.687C82.728,79.033,88.123,73.641,94.777,73.640L145.545,73.631C143.136,76.696,140.696,79.746,138.315,82.722C135.425,86.334,132.444,90.060,129.538,93.788L102.774,93.788L102.774,169.698ZZM159.522,175.945C156.344,172.280,152.688,168.109,148.981,163.879C141.749,155.625,134.269,147.091,129.854,141.770L128.260,139.850L126.645,141.752C121.678,147.605,116.630,153.477,111.777,159.102L111.777,129.857C123.950,114.825,142.724,91.454,156.947,73.626L184.227,73.626C170.088,89.858,155.562,106.607,141.477,123.912L140.373,125.267L141.511,126.596C143.185,128.552,174.339,164.499,184.259,175.945L159.522,175.945ZZ" fill="url(#b)" class="fills"/></g></svg>