<svg width="148" height="58" viewBox="0 0 148 58" fill="current" xmlns="http://www.w3.org/2000/svg">
<path d="M60.9883 21.5974H63.8363C63.8363 22.8177 65.135 23.7118 66.6163 23.7118C68.3311 23.7118 69.3709 22.7965 69.3709 21.6822C69.3709 20.2203 68.4669 19.8729 66.315 19.2627C64.3244 18.6949 61.4509 17.9746 61.4509 14.7289C61.4509 12.1993 63.8829 10.1697 66.9389 10.1697C69.9948 10.1697 72.359 12.1993 72.359 14.7501H69.4855C69.4855 13.5298 68.399 12.6993 66.9134 12.6993C65.3175 12.6993 64.3201 13.5044 64.3201 14.5298C64.3201 15.5552 64.9695 16.0763 67.0747 16.6865C69.1842 17.2755 72.2401 17.9746 72.2401 21.5508C72.2401 24.2541 69.7147 26.2838 66.5909 26.2838C63.467 26.2838 60.9883 24.1694 60.9883 21.5974Z" />
<path d="M75.207 13.9112H77.8852V16.3476H77.9744C78.7171 14.6739 80.5889 13.585 82.6602 13.585C85.9283 13.585 88.458 16.4112 88.458 19.9365C88.458 23.4619 85.9283 26.2881 82.6602 26.2881C80.678 26.2881 79.0864 25.4407 78.0423 23.6356H77.9531V28.0381L75.207 30.1355V13.9112ZM85.6439 19.9365C85.6439 17.6315 83.9674 16.1527 81.9386 16.1527C79.9098 16.1527 78.2757 17.6315 78.2757 19.9365C78.2757 22.2416 79.931 23.7204 81.9386 23.7204C83.9462 23.7204 85.6439 22.2416 85.6439 19.9365Z" />
<path d="M90.0801 19.873C90.0801 16.3476 92.9578 13.585 96.6376 13.585C100.318 13.585 103.195 16.3476 103.195 19.9577C103.195 20.1526 103.174 20.5001 103.106 20.8263H92.996C93.3016 22.4789 94.8465 23.7204 96.6801 23.7204C98.1189 23.7204 99.3158 23.0466 99.8846 21.8263H102.894C102.045 24.4153 99.6469 26.2627 96.6376 26.2627C92.9535 26.2627 90.0801 23.3899 90.0801 19.8687V19.873ZM100.169 18.7628C99.927 17.3264 98.5137 16.1315 96.5952 16.1315C94.6767 16.1315 93.2379 17.2417 93.0427 18.7628H100.169Z" />
<path d="M105.004 19.873C105.004 16.3476 107.882 13.5002 111.434 13.5002C113.263 13.5002 114.944 14.2841 116.099 15.5002L114.333 17.3053C113.658 16.5426 112.657 16.0638 111.434 16.0638C109.384 16.0638 107.75 17.7163 107.75 19.873C107.75 22.0297 109.384 23.7034 111.434 23.7034C112.589 23.7034 113.505 23.2882 114.18 22.6145L115.946 24.3983C114.791 25.572 113.2 26.2712 111.434 26.2712C107.882 26.2712 105.004 23.4195 105.004 19.8772V19.873Z" />
<path d="M118.355 12.6612L121.08 10.5129V13.9112H124.017V16.4577H121.08V23.3983H123.954V25.9448H118.355V12.6654V12.6612Z" />
<path d="M126.717 13.9111H133.975V16.4577H129.463V25.9406H126.717V13.9111Z" />
<path d="M134.908 19.9366C134.908 16.39 137.786 13.6062 141.313 13.6062C144.84 13.6062 147.722 16.39 147.722 19.9366C147.722 23.4831 144.844 26.267 141.313 26.267C137.782 26.267 134.908 23.3941 134.908 19.9366ZM145.018 19.9366C145.018 17.6104 143.363 16.1739 141.313 16.1739C139.263 16.1739 137.654 17.6104 137.654 19.9366C137.654 22.2628 139.288 23.6992 141.313 23.6992C143.338 23.6992 145.018 22.1781 145.018 19.9366Z" />
<path d="M80.5293 42.5463C80.5293 39.0421 83.3858 36.2583 86.8916 36.2583C90.3975 36.2583 93.2539 39.0421 93.2539 42.5463C93.2539 46.0505 90.3975 48.8343 86.8916 48.8343C83.3858 48.8343 80.5293 45.9827 80.5293 42.5463ZM91.5307 42.5463C91.5307 39.826 89.4382 37.8896 86.8874 37.8896C84.3365 37.8896 82.2228 39.826 82.2228 42.5463C82.2228 45.2666 84.3153 47.203 86.8874 47.203C89.4595 47.203 91.5307 45.1819 91.5307 42.5463Z" />
<path d="M95.5335 43.915V36.5422H97.2567V44.004C97.2567 46.0929 98.6744 47.203 100.525 47.203C102.375 47.203 103.814 46.0717 103.814 44.004V36.5422H105.512V43.915C105.512 46.9615 103.356 48.8301 100.521 48.8301C97.6854 48.8301 95.5293 46.9573 95.5293 43.915H95.5335Z" />
<path d="M107.848 42.5208C107.848 38.9954 110.483 36.2116 113.883 36.2116C116.302 36.2116 118.153 37.5802 119.002 39.4954H119.091V33.165H120.789V48.4783H119.112V45.5207H119.049C118.068 47.7156 116.107 48.8257 113.883 48.8257C110.483 48.8257 107.848 45.9741 107.848 42.5165V42.5208ZM118.853 42.5208C118.853 39.8683 116.871 37.8217 114.257 37.8217C111.642 37.8217 109.618 39.8683 109.618 42.5208C109.618 45.1733 111.6 47.1987 114.257 47.1987C116.914 47.1987 118.853 45.1309 118.853 42.5208Z" />
<path d="M76.991 46.8724V32.343L75.2891 33.682V48.5037H79.0623V46.8724H76.991Z" />
<path d="M67.4278 47.1776C63.9431 47.1776 61.197 44.4361 61.197 40.7836C61.197 37.1312 63.9431 34.4956 67.4278 34.4956C69.2359 34.4956 70.7978 35.1693 71.9608 36.2498L73.0006 35.1481C71.5703 33.7329 69.5712 32.8389 67.4278 32.8389C62.9839 32.8389 59.4102 36.343 59.4102 40.7794C59.4102 45.2157 62.9839 48.8301 67.4278 48.8301C69.5839 48.8301 71.5703 47.936 73.0049 46.5039L71.9353 45.3725C70.8021 46.4827 69.2316 47.1776 67.4235 47.1776H67.4278Z" />
<path d="M21.4875 57.0079L0.948962 40.8218C-0.141842 39.9616 -0.141842 38.3091 0.948962 37.449L21.4875 21.2247C22.608 20.3392 24.1869 20.3392 25.3074 21.2247L45.8459 37.449C46.9368 38.3091 46.9368 39.9616 45.8459 40.8218L25.3074 57.0079C24.1912 57.8893 22.6122 57.8893 21.4917 57.0079H21.4875Z" fill="#1F7A78"/>
<path d="M45.8046 37.4278L24.935 21.0001C23.9376 20.212 22.7024 19.784 21.4291 19.784L1.74372 19.7501C0.882112 19.7501 0.449186 19.5934 0.262434 19.0044C0.164813 19.2713 0.130859 19.5256 0.130859 19.7205C0.130859 20.1145 0.22848 20.8561 0.979734 21.4535L21.8493 37.8981C22.851 38.6862 24.0861 39.1142 25.3594 39.1184L45.0958 39.1354C45.9192 39.1438 46.3436 39.3048 46.5219 39.8769C46.6195 39.6099 46.6534 39.3557 46.6534 39.1608C46.6534 38.7625 46.5558 38.021 45.8046 37.4278Z" fill="#043736"/>
<path d="M45.8378 18.051L25.3035 1.82678C24.183 0.941204 22.6041 0.941204 21.4836 1.82678L0.945056 18.051C-0.145748 18.9112 -0.145748 20.5637 0.945056 21.4239L21.3223 37.4829C21.3435 37.5125 21.3732 37.5379 21.4114 37.5718C22.5617 38.4955 23.1516 38.7201 23.9199 38.932C24.6923 39.1438 25.3545 39.1184 25.6261 39.1184H26.6532C25.9656 39.0252 25.6685 38.61 25.5709 38.2752C25.4436 37.843 25.6558 37.3812 26.059 37.0125L45.8293 21.4323C46.9201 20.5722 46.9201 18.9197 45.8293 18.0595L45.8378 18.051Z" fill="#1F7A78"/>
<path d="M26.0685 37.0041L35.665 29.4406L24.9353 20.9917C23.9378 20.2035 22.7027 19.7756 21.4294 19.7756L1.744 19.7417C0.882393 19.7417 0.445224 19.5807 0.262716 18.9917C0.122651 19.3942 0.114162 19.6951 0.152361 20.0086C0.19056 20.3307 0.330624 20.7078 0.542843 20.9959C0.657441 21.1484 0.80175 21.301 0.984258 21.445L21.3275 37.4786C21.3275 37.4786 21.8114 37.8939 22.2613 38.1862C22.7834 38.521 23.3479 38.7752 23.9463 38.9277C23.9548 38.9277 23.9633 38.932 23.976 38.9362C24.4259 39.0506 24.8928 39.1099 25.3639 39.1099H26.6627C25.9751 39.021 25.678 38.6015 25.5804 38.2667C25.4531 37.8345 25.6653 37.3727 26.0685 37.0041Z" fill="#005B5B"/>
</svg>
