<svg width="131" height="45" viewBox="0 0 131 45" fill="none" xmlns="http://www.w3.org/2000/svg">
<g clip-path="url(#clip0_2006_7606)">
<path fill-rule="evenodd" clip-rule="evenodd" d="M20.6397 29.4289C18.5167 30.5564 16.6181 32.0191 15.2677 34.0093C13.8739 36.0634 13.1965 38.5683 13.3399 41.0392C23.5487 36.3509 32.2628 39.3217 35.6773 40.9029C35.6447 40.6246 35.5985 40.3547 35.5183 40.0175C35.2641 38.9553 34.88 38.0053 34.3766 37.1937C32.7158 34.5191 29.5498 33.0138 27.3132 32.1149C26.5883 31.8231 25.8541 31.5512 25.1207 31.2785C23.6346 30.7268 22.1052 30.1588 20.6397 29.4289ZM37.7918 44.2095L36.2425 43.2566C36.1374 43.192 25.4828 36.8423 12.9963 43.241L11.8879 43.809L11.6771 42.5814C11.1062 39.2656 11.8631 35.7666 13.7525 32.9811C15.0795 31.0264 16.8347 29.5375 18.7936 28.3653C18.4315 28.1217 18.0488 27.8448 17.6285 27.5232L17.5859 27.4884C15.776 25.9214 14.5527 24.2379 13.952 22.4848C13.2995 20.587 13.7255 18.513 15.0106 17.3237C15.8548 16.5427 17.0782 16.1103 18.4564 16.106H18.4834C19.5512 16.106 20.5623 16.3396 21.54 16.5654L21.682 16.598C24.2197 17.1824 27.1648 17.7745 29.9765 17.3855C32.8528 16.9886 34.9261 15.6764 36.3142 13.3745C37.7762 10.9498 38.1084 8.20981 37.2486 5.65798C37.0001 4.91884 36.4356 3.99936 35.7412 3.1665C35.3614 3.71038 34.9006 4.19604 34.3858 4.58797C32.2586 6.20683 29.5839 6.38007 27.7151 6.23949C26.109 6.11878 24.547 5.7517 23.0367 5.39669C22.4765 5.26533 21.9156 5.13327 21.3533 5.01399C18.0957 4.32384 15.2854 4.19036 12.7641 4.60501C9.78768 5.09493 7.1755 6.40989 5.40683 8.30779C2.61785 11.2998 1.67352 15.5202 2.87985 19.5965C3.60621 22.0496 6.57766 25.9448 10.6532 28.3319L10.9507 28.5066C11.7346 28.9667 12.3537 29.3295 13.046 29.6923L12.1961 31.314C11.4655 30.9313 10.8293 30.5578 10.0241 30.0857L9.72804 29.9124C5.19879 27.2591 1.97102 22.9762 1.12396 20.1162C-0.26769 15.4123 0.832139 10.5309 4.06701 7.05957C6.10975 4.86701 9.09399 3.35395 12.4666 2.79871C15.218 2.34571 18.2476 2.48488 21.7331 3.22259C22.3083 3.34472 22.882 3.47962 23.4557 3.61453C24.9638 3.96883 26.3888 4.30396 27.8521 4.41401C29.405 4.52975 31.606 4.40265 33.2774 3.131C33.8923 2.66238 34.4014 2.00135 34.7096 1.27003L35.2243 0.0473633L36.185 0.962585C37.4708 2.1888 38.5437 3.76363 38.9839 5.07434C40.0184 8.14377 39.6265 11.4269 37.882 14.3203C36.2134 17.0865 33.6381 18.7281 30.2272 19.1996C27.1073 19.6313 23.9676 19.0036 21.2709 18.3823L21.1282 18.3497C20.203 18.136 19.351 17.9414 18.4628 17.9371C17.5447 17.94 16.7601 18.1999 16.2539 18.6678C15.5048 19.3607 15.2698 20.6864 15.683 21.8906C16.1765 23.3277 17.2131 24.7392 18.7638 26.0861C19.4895 26.6406 20.0816 27.0425 20.656 27.3677C22.7499 26.3623 24.9808 25.6352 27.1116 25.031C27.4254 24.9422 27.7605 24.8507 28.1106 24.7548C29.7472 24.3068 31.7466 23.7593 33.249 23.0131C33.3257 22.1788 33.6822 20.7297 35.1654 19.9167L35.372 19.8031L35.6077 19.8038C36.4157 19.8059 38.0126 20.3967 38.5742 22.5608C39.3041 22.8051 40.0127 23.1998 40.6894 23.7366C42.167 24.9096 43.298 26.6846 44.1479 29.1633L44.3595 29.7804L43.8455 30.1815C42.762 31.0279 41.4108 31.5497 40.0404 31.6534C38.8178 31.745 37.1258 31.9864 36.545 33.0237L34.9481 32.1291C35.9585 30.3235 38.2597 29.9508 39.9034 29.8272C40.7 29.7676 41.4889 29.5155 42.179 29.1065C41.4839 27.3116 40.6212 26.0201 39.5505 25.1709C38.9157 24.666 38.259 24.3352 37.5987 24.1861L37.0335 24.059L36.8666 23.3134C36.6479 22.1469 36.1012 21.7904 35.803 21.6818C34.9907 22.3201 35.0582 23.4491 35.0617 23.5009L35.1015 24.0767L34.6009 24.3685C32.8678 25.3505 30.4977 25.9995 28.5941 26.5206C28.2505 26.6151 27.9196 26.7052 27.6107 26.7926C26.0295 27.2413 24.3908 27.7589 22.811 28.4128C23.783 28.8289 24.7799 29.1988 25.7576 29.5617C26.5074 29.84 27.2564 30.1183 27.9963 30.4158C30.4721 31.4113 33.9875 33.0969 35.9315 36.2281C36.5393 37.2065 36.9994 38.3376 37.299 39.5915C37.4865 40.3739 37.5227 40.8816 37.5717 41.5845C37.588 41.8202 37.6065 42.0844 37.6342 42.3975L37.7918 44.2095Z" fill="black"/>
<ellipse cx="37.5829" cy="26.6791" rx="0.65" ry="0.650001" fill="black"/>
<path fill-rule="evenodd" clip-rule="evenodd" d="M53.4023 35.8637C54.2728 36.7455 55.3769 37.1858 56.7153 37.1858C58.0536 37.1858 59.1634 36.7455 60.0446 35.8637C60.9257 34.9833 61.3666 33.8508 61.3666 32.4676C61.3666 31.0852 60.9257 29.9527 60.0446 29.0716C59.1634 28.1897 58.0536 27.7488 56.7153 27.7488C55.3769 27.7488 54.2728 28.1897 53.4023 29.0716C52.5325 29.9527 52.0972 31.0852 52.0972 32.4676C52.0972 33.8508 52.5325 34.9833 53.4023 35.8637ZM61.3666 24.1021H65.6829V40.8332H61.3666V38.8593C60.073 40.4881 58.2546 41.3018 55.9122 41.3018C53.6813 41.3018 51.7678 40.4483 50.1731 38.7421C48.5784 37.0345 47.781 34.9435 47.781 32.4676C47.781 29.9911 48.5784 27.9001 50.1731 26.1932C51.7678 24.487 53.6813 23.6328 55.9122 23.6328C58.2546 23.6328 60.073 24.4479 61.3666 26.076V24.1021Z" fill="black"/>
<path fill-rule="evenodd" clip-rule="evenodd" d="M76.223 41.3025C73.7017 41.3025 71.5994 40.4547 69.9152 38.7592C68.231 37.0637 67.3889 34.967 67.3889 32.4684C67.3889 29.9698 68.231 27.8731 69.9152 26.1769C71.5994 24.482 73.7017 23.6335 76.223 23.6335C77.8511 23.6335 79.3351 24.0248 80.6742 24.8058C82.0119 25.5861 83.0272 26.6348 83.7188 27.9505L80.0046 30.126C79.6695 29.4344 79.1625 28.8877 78.4816 28.4859C77.8014 28.0847 77.0374 27.8838 76.1897 27.8838C74.8953 27.8838 73.8253 28.3133 72.9775 29.1717C72.129 30.0309 71.7059 31.13 71.7059 32.4684C71.7059 33.7848 72.129 34.8718 72.9775 35.7302C73.8253 36.5894 74.8953 37.0189 76.1897 37.0189C77.0595 37.0189 77.8348 36.8237 78.5157 36.4339C79.1959 36.0434 79.7029 35.5023 80.038 34.81L83.7855 36.9522C83.0492 38.2693 82.0119 39.323 80.6742 40.1139C79.3351 40.9056 77.8511 41.3025 76.223 41.3025Z" fill="black"/>
<path fill-rule="evenodd" clip-rule="evenodd" d="M89.8596 35.7806C90.718 36.6511 91.7951 37.0857 93.0888 37.0857C94.3824 37.0857 95.4645 36.6511 96.335 35.7806C97.2048 34.9101 97.64 33.8061 97.64 32.4677C97.64 31.1293 97.2048 30.0252 96.335 29.1547C95.4645 28.2849 94.3824 27.8497 93.0888 27.8497C91.7951 27.8497 90.718 28.2849 89.8596 29.1547C89.0004 30.0252 88.5716 31.1293 88.5716 32.4677C88.5716 33.8061 89.0004 34.9101 89.8596 35.7806ZM99.3796 38.7422C97.6613 40.4483 95.5653 41.3018 93.0888 41.3018C90.6129 41.3018 88.5212 40.4483 86.8143 38.7422C85.1081 37.0353 84.2546 34.9435 84.2546 32.4677C84.2546 29.9918 85.1081 27.9001 86.8143 26.1932C88.5212 24.487 90.6129 23.6335 93.0888 23.6335C95.5653 23.6335 97.6613 24.487 99.3796 26.1932C101.097 27.9001 101.956 29.9918 101.956 32.4677C101.956 34.9435 101.097 37.0353 99.3796 38.7422Z" fill="black"/>
<path fill-rule="evenodd" clip-rule="evenodd" d="M107.979 26.9795C108.38 25.9088 109.044 25.1057 109.97 24.5704C110.895 24.0357 111.928 23.7673 113.066 23.7673V28.5863C111.749 28.4301 110.572 28.6977 109.535 29.3893C108.497 30.0809 107.979 31.229 107.979 32.8358V40.8335H103.662V24.1018H107.979V26.9795Z" fill="black"/>
<path fill-rule="evenodd" clip-rule="evenodd" d="M124.209 23.6335C126.038 23.6335 127.55 24.2477 128.743 25.4746C129.936 26.7009 130.533 28.3971 130.533 30.5605V40.8339H126.217V31.0959C126.217 29.9805 125.916 29.127 125.313 28.5356C124.711 27.9448 123.908 27.6494 122.904 27.6494C121.789 27.6494 120.896 27.9959 120.227 28.6868C119.558 29.3784 119.223 30.4157 119.223 31.7988V40.8339H114.906V24.1022H119.223V25.9766C120.272 24.4153 121.933 23.6335 124.209 23.6335Z" fill="black"/>
</g>
<defs>
<clipPath id="clip0_2006_7606">
<rect width="130" height="44.2" fill="white" transform="translate(0.532959 0.0290527)"/>
</clipPath>
</defs>
</svg>
