<svg width="211" height="31" viewBox="0 0 211 31" fill="none" xmlns="http://www.w3.org/2000/svg">
<path d="M39.4341 30.0361H49.7032C58.7324 30.0361 63.5375 23.9908 63.5375 15.3105C63.5375 6.47511 58.7324 0.894885 49.7032 0.894885H39.4341V30.0361ZM44.0843 25.4246V5.50632H49.0445C55.2835 5.50632 58.8099 8.56769 58.8099 15.3105C58.8099 22.0145 55.2835 25.4246 49.0445 25.4246H44.0843Z" fill="black"/>
<path d="M75.6877 30.5011C79.4466 30.5011 82.3917 28.7573 84.4455 25.0759L80.7641 22.867C79.7178 24.8821 77.8965 25.9284 75.7264 25.9284C72.8588 25.9284 70.96 23.9908 70.5337 21.1619H84.7555V19.5731C84.7555 13.0629 81.1129 8.76145 75.4552 8.76145C69.6424 8.76145 65.7673 13.1791 65.7673 19.5731C65.7673 25.9671 69.6424 30.5011 75.6877 30.5011ZM70.7275 17.2093C71.2312 14.9617 73.0138 13.2954 75.4939 13.2954C77.8965 13.2954 79.6016 14.8842 79.8728 17.2093H70.7275Z" fill="black"/>
<path d="M94.078 30.0361H97.6819L105.82 9.11022H100.976L95.8993 22.557L90.8229 9.11022H85.9014L94.078 30.0361Z" fill="black"/>
<path d="M119.109 30.7723C125.697 30.7723 129.999 27.4009 129.999 22.2857C129.999 17.9843 126.937 14.9617 119.768 12.7141C114.614 11.1253 112.87 9.84649 112.87 7.98642C112.87 5.97134 114.963 4.80879 118.218 4.80879C121.744 4.80879 123.721 6.20385 124.535 9.11022L129.34 8.06392C128.061 2.87121 124.457 0.197357 118.451 0.197357C112.057 0.197357 108.065 3.18123 108.065 7.90892C108.065 12.1328 111.204 15.078 118.063 17.093C123.101 18.5656 125.232 20.0769 125.232 22.1695C125.232 24.4946 122.636 26.1996 118.916 26.1996C115.079 26.1996 112.793 24.3783 112.057 20.7357L107.484 21.7432C108.491 27.5947 112.599 30.7723 119.109 30.7723Z" fill="black"/>
<path d="M142.428 30.5011C143.358 30.5011 144.25 30.4236 145.025 30.3461V25.8509H142.583C141.46 25.8509 140.685 25.3859 140.685 23.177V13.6441H144.831V9.11022H140.685V3.25873H136.034V9.11022H132.624V13.6441H136.034V24.2621C136.034 28.7185 137.895 30.5011 142.428 30.5011Z" fill="black"/>
<path d="M154.96 30.5011C157.402 30.5011 159.804 29.726 161.509 28.4085C162.207 29.6873 163.679 30.5011 165.346 30.5011C166.005 30.5011 166.702 30.3848 167.361 30.1523V26.1609C166.198 26.5484 165.307 25.9671 165.307 24.8046V16.3568C165.307 11.5128 162.246 8.76145 157.247 8.76145C152.79 8.76145 149.574 10.8928 148.411 14.6129L152.713 16.163C153.372 14.2642 154.922 13.2179 157.208 13.2179C159.068 13.2179 160.347 13.9542 160.347 15.078C160.347 16.6668 157.789 17.248 152.945 18.5656C149.768 19.4569 147.598 21.5107 147.598 24.5333C147.598 28.0985 150.62 30.5011 154.96 30.5011ZM155.387 26.3547C153.527 26.3547 152.286 25.6184 152.286 24.2621C152.286 21.782 156.355 22.3245 160.696 20.0769V24.2233C159.456 25.4634 157.402 26.3547 155.387 26.3547Z" fill="black"/>
<path d="M169.656 29.9973H174.345V17.8681C175.236 14.9617 177.522 13.3729 180.002 13.3729C182.25 13.3729 183.877 14.7679 183.877 17.7518V29.9973H188.528V16.783C188.528 11.6678 185.35 8.76145 180.932 8.76145C178.53 8.76145 176.282 9.57524 174.345 11.5516V9.11022H169.656V29.9973Z" fill="black"/>
<path d="M200.285 30.5011C202.455 30.5011 204.315 29.6873 205.671 27.7885V30.0361H210.399V0.739879H205.671V11.0865C204.199 9.49773 202.339 8.7227 200.285 8.7227C195.208 8.7227 191.411 13.4116 191.411 19.6506C191.411 25.8509 195.053 30.5011 200.285 30.5011ZM200.866 25.8896C198.037 25.8896 196.138 23.177 196.138 19.6894C196.138 16.2017 198.076 13.4891 200.827 13.4891C203.656 13.4891 205.633 16.318 205.633 19.7669C205.633 23.2545 203.656 25.8896 200.866 25.8896Z" fill="black"/>
<path fill-rule="evenodd" clip-rule="evenodd" d="M10.2823 15.323C10.1982 10.309 6.78618 5.51862 0.211433 5.51863L0.211426 0.571625C9.95192 0.57161 15.1076 8.01765 15.2286 15.2401C15.2889 18.8434 14.1206 22.5361 11.5681 25.3545C8.97849 28.2139 5.12723 29.9914 0.21143 29.9914V25.0444C3.86332 25.0444 6.33532 23.7629 7.90137 22.0337C9.50463 20.2634 10.3244 17.8378 10.2823 15.323Z" fill="black"/>
<path fill-rule="evenodd" clip-rule="evenodd" d="M18.4124 5.08379C21.2813 2.3325 25.104 0.571625 30.4831 0.571625V5.51863C26.3353 5.51863 23.7524 6.81688 21.8365 8.65428C19.7998 10.6075 18.3866 13.2798 16.8423 16.3835C16.7485 16.572 16.6541 16.7625 16.5588 16.9547C15.1652 19.7658 13.5933 22.9367 11.2948 25.3866C8.69251 28.1602 5.2044 29.9916 0.211426 29.9916V25.0446C3.78615 25.0446 5.98409 23.8169 7.68704 22.0018C9.46824 20.1033 10.738 17.5494 12.2395 14.5292C12.2971 14.4134 12.355 14.2969 12.4133 14.1797C13.9132 11.1652 15.6642 7.71929 18.4124 5.08379Z" fill="black"/>
</svg>
