<?xml version="1.0" encoding="UTF-8"?> <svg xmlns="http://www.w3.org/2000/svg" id="Layer_1" data-name="Layer 1" viewBox="0 0 4545.18 492.08"><defs><style> .cls-1 { fill: #1d63ed; } .cls-1, .cls-2 { stroke-width: 0px; } .cls-2 { fill: #00308d; } .cls-3 { opacity: .5; } </style></defs><g><path class="cls-1" d="M2069.24,340.14c-19.15,0-34.42,14.87-34.42,33.4s15.27,33.81,34.42,33.81,34.21-14.87,34.21-33.81-14.87-33.4-34.21-33.4ZM2069.43,400.21c-15.07,0-26.07-11.81-26.07-26.68s11-26.68,25.87-26.68,25.65,12.02,25.65,26.89-10.8,26.47-25.46,26.47Z"></path><path class="cls-1" d="M2076.98,374.56v-.41c4.07-1.22,6.91-4.07,6.91-7.74,0-3.26-1.42-5.91-3.26-7.33-2.45-1.42-5.29-2.45-11.61-2.45-5.49,0-9.78.41-12.82,1.03v33.4h7.74v-13.45h3.66c4.28,0,6.32,1.64,6.93,5.29,1.01,3.89,1.62,6.93,2.65,8.15h8.35c-.83-1.22-1.44-3.26-2.45-8.35-1.03-4.48-2.86-6.93-6.1-8.14ZM2067.8,372.11h-3.66v-9.56c.81-.21,2.23-.43,4.27-.43,4.9,0,7.13,2.05,7.13,5.11,0,3.46-3.46,4.88-7.74,4.88Z"></path><path class="cls-1" d="M773.73,28.45c-7.06,0-12.81,2.38-17.42,7.06-4.62,4.68-6.88,10.68-6.88,17.83v119.4c-23.7-19.59-51.05-29.47-82.16-29.47-36.16,0-67.08,13.06-92.7,39.27-25.62,26.12-38.34,57.72-38.34,94.78s12.81,68.57,38.34,94.78c25.62,26.12,56.46,39.27,92.7,39.27s66.74-13.06,92.7-39.27c25.62-25.86,38.34-57.45,38.34-94.78V53.34c0-7.15-2.35-13.15-7.15-17.83-4.79-4.68-10.54-7.06-17.43-7.06ZM742.98,309.62v.18c-4.27,10.15-10.11,19.06-17.51,26.65-7.4,7.68-16.12,13.68-26.05,18.18-10.02,4.5-20.65,6.71-32.06,6.71s-22.3-2.21-32.32-6.71c-10.02-4.5-18.65-10.5-25.96-18.09-7.32-7.59-13.15-16.5-17.42-26.65-4.27-10.24-6.45-21.09-6.45-32.57s2.18-22.33,6.45-32.57c4.27-10.24,10.11-19.06,17.42-26.65,7.32-7.59,16.03-13.59,25.96-18.09,10.02-4.5,20.74-6.71,32.32-6.71s22.04,2.21,32.06,6.71c10.02,4.5,18.65,10.5,26.05,18.18,7.4,7.68,13.24,16.59,17.51,26.65,4.27,10.15,6.45,20.92,6.45,32.39s-2.18,22.33-6.45,32.39Z"></path><path class="cls-1" d="M1845.01,182.71l-.17-.09c-25.88-26.12-56.82-39.27-92.7-39.27s-67.09,13.06-92.71,39.27c-25.62,26.12-38.33,57.72-38.33,94.78s12.81,68.57,38.33,94.78c25.62,26.12,56.47,39.27,92.71,39.27,32.92,0,61.41-10.85,85.64-32.56,4.69-4.94,7.06-10.94,7.06-17.92s-2.26-13.15-6.89-17.83c-4.61-4.68-10.45-7.06-17.42-7.06-6.09.18-11.5,2.21-16.11,6.27-7.32,6.35-15.25,11.21-23.87,14.39-8.63,3.18-18.04,4.77-28.31,4.77-9.07,0-17.78-1.41-26.05-4.32-8.29-2.91-16.03-6.89-22.92-12.09-6.98-5.21-12.98-11.38-18.12-18.71-5.14-7.24-9.06-15.27-11.67-24.09h185.32c6.87,0,12.62-2.38,17.42-7.06,4.8-4.68,7.15-10.68,7.15-17.83,0-18.53-3.24-35.74-9.58-51.54-6.36-15.89-16.05-30.27-28.76-43.16ZM1673.29,252.52c2.53-8.74,6.36-16.77,11.5-24.09,5.15-7.24,11.24-13.5,18.21-18.71,7.06-5.21,14.72-9.18,23.18-12.09,8.44-2.91,17.06-4.32,25.97-4.32s17.51,1.41,25.86,4.32c8.37,2.91,16.05,6.88,22.92,12.09,6.98,5.21,13.07,11.38,18.21,18.71,5.22,7.24,9.16,15.27,11.86,24.09h-157.71Z"></path><path class="cls-1" d="M2101.5,160.12c-4.36-4.32-9.85-7.68-16.47-10.15-6.62-2.47-13.85-4.15-21.78-5.12-7.84-.97-15.25-1.41-22.12-1.41-15.6,0-30.24,2.56-44,7.68-13.77,5.12-26.49,12.44-38.17,21.97v-4.76c0-6.88-2.35-12.71-7.15-17.56-4.78-4.85-10.45-7.32-17.15-7.32s-12.64,2.47-17.42,7.32c-4.8,4.85-7.15,10.77-7.15,17.56v218.25c0,6.88,2.35,12.71,7.15,17.56,4.78,4.85,10.53,7.32,17.42,7.32s12.45-2.47,17.15-7.32c4.8-4.85,7.15-10.77,7.15-17.56v-109.17c0-11.65,2.18-22.59,6.45-32.83,4.27-10.24,10.11-19.06,17.51-26.65,7.42-7.59,16.13-13.59,26.05-17.92,10.02-4.41,20.66-6.62,32.08-6.62s22.2,2.03,32.06,6c3.91,1.77,7.32,2.65,10.28,2.65,3.4,0,6.62-.62,9.58-1.94,2.96-1.32,5.58-3.09,7.76-5.38,2.18-2.29,3.91-4.94,5.22-8.03,1.31-3,2.01-6.27,2.01-9.8,0-6.88-2.18-12.44-6.53-16.77h.08Z"></path><path class="cls-1" d="M1049.83,182.62c-25.87-26.12-56.8-39.27-92.7-39.27s-67.08,13.06-92.7,39.27c-25.62,26.12-38.33,57.72-38.33,94.78s12.81,68.57,38.33,94.78c25.62,26.12,56.46,39.27,92.7,39.27s66.74-13.06,92.7-39.27c25.62-25.86,38.34-57.45,38.34-94.78-.18-18.53-3.4-35.65-9.67-51.45-6.36-15.8-15.86-30.27-28.66-43.33ZM1032.84,309.62v.18c-4.27,10.15-10.11,19.06-17.51,26.65-7.4,7.68-16.12,13.68-26.05,18.18-9.93,4.5-20.65,6.71-32.06,6.71s-22.3-2.21-32.32-6.71c-10.02-4.5-18.65-10.5-25.96-18.09-7.32-7.59-13.15-16.5-17.42-26.65-4.27-10.24-6.45-21.09-6.45-32.57s2.18-22.33,6.45-32.57c4.27-10.24,10.11-19.06,17.42-26.65,7.32-7.59,16.03-13.59,25.96-18.09,10.02-4.5,20.74-6.71,32.32-6.71s22.04,2.21,32.06,6.71c10.02,4.5,18.65,10.5,26.05,18.18,7.4,7.68,13.24,16.59,17.51,26.65,4.27,10.15,6.45,20.92,6.45,32.39s-2.18,22.33-6.45,32.39Z"></path><path class="cls-1" d="M1495.28,253.05l98.01-65.13c6.25-4.31,9.3-10.9,9.32-19.76-.01-3.32-.71-6.48-2-9.45-1.31-3-3.05-5.73-5.23-8.03-2.18-2.29-4.79-4.15-7.75-5.38-2.96-1.23-6.18-1.94-9.58-1.94-4.88,0-9.24,1.24-13.07,3.8l-139.92,93.11V53.51c0-7.06-2.35-12.97-7.14-17.83-4.79-4.85-10.45-7.32-17.16-7.32s-12.63,2.47-17.43,7.32c-4.79,4.85-7.14,10.77-7.14,17.83v332.71c0,6.88,2.35,12.8,7.14,17.74,4.79,4.94,10.54,7.41,17.43,7.41s12.46-2.47,17.16-7.41c4.79-4.94,7.14-10.86,7.14-17.74v-86.4l28.58-19.15,108.12,124.17c4.36,4.32,9.85,6.44,16.38,6.44,3.4,0,6.62-.62,9.58-1.94,2.96-1.24,5.58-3.09,7.75-5.38,2.18-2.29,3.92-4.94,5.23-8.03,1.31-3,2-6.27,2-9.53,0-6.53-2.26-12.36-6.8-17.47l-100.63-115.87Z"></path><path class="cls-1" d="M1602.62,168.06s0,.06,0,.1c0,.03,0,.05,0,.08v-.18Z"></path><path class="cls-1" d="M1188.35,218.01v-.09c7.49-7.59,16.21-13.59,26.23-17.92,10.02-4.41,20.65-6.62,32.06-6.62,10.28,0,19.78,1.77,28.58,5.29,8.71,3.53,17.08,8.74,25,15.53,4.7,3.79,10.02,5.73,15.94,5.73,7.06,0,12.81-2.38,17.43-7.15,4.62-4.77,6.88-10.77,6.88-17.92s-2.79-13.77-8.45-18.88c-24.05-21.71-52.53-32.57-85.38-32.57-36.16,0-67.08,13.06-92.7,39.27-25.62,26.12-38.33,57.72-38.33,94.78s12.81,68.57,38.33,94.78c25.62,26.12,56.46,39.27,92.7,39.27,32.76,0,61.25-10.85,85.38-32.57,5.14-5.29,7.76-11.38,7.76-18.44s-2.27-13.15-6.88-17.83c-4.62-4.68-10.45-7.06-17.42-7.06-5.92.18-11.07,1.94-15.42,5.29-7.84,6.88-16.03,12-24.83,15.44-8.71,3.44-18.21,5.12-28.58,5.12-11.41,0-22.04-2.21-32.06-6.62-10.02-4.41-18.73-10.41-26.23-17.91-7.49-7.5-13.42-16.5-17.69-26.65-4.27-10.24-6.45-21.18-6.45-32.83s2.18-22.59,6.45-32.83c4.27-10.24,10.19-19.06,17.69-26.65Z"></path><path class="cls-1" d="M2393.36,165.12c-19.1-11.62-40.76-17.43-64.95-17.43-20.7,0-39.48,4.38-56.36,13.13-16.88,8.76-30.57,20.3-41.07,34.63V58.86c0-6.37-1.84-11.38-5.49-15.04-3.66-3.66-8.52-5.49-14.57-5.49-6.37,0-11.39,1.84-15.04,5.49-3.66,3.66-5.49,8.68-5.49,15.04v223.04c.31,24.83,6.28,47.21,17.91,67.1,11.62,19.9,27.3,35.66,47.04,47.28,19.74,11.63,42.03,17.43,66.86,17.43s48.16-5.81,68.06-17.43c19.89-11.62,35.66-27.46,47.28-47.52,11.62-20.06,17.43-42.82,17.43-68.3s-5.49-47.76-16.48-67.82c-10.98-20.06-26.03-35.9-45.13-47.52ZM2403.63,329.9c-8.12,14.49-19.27,26.03-33.43,34.63-14.17,8.6-30.17,12.9-48,12.9s-32.88-4.3-47.04-12.9c-14.17-8.6-25.24-20.13-33.19-34.63-7.96-14.49-11.94-30.96-11.94-49.43s3.98-34.54,11.94-49.19c7.95-14.64,19.02-26.19,33.19-34.63,14.16-8.43,29.85-12.66,47.04-12.66s33.83,4.22,48,12.66c14.16,8.44,25.31,19.98,33.43,34.63,8.12,14.65,12.18,31.04,12.18,49.19s-4.06,34.95-12.18,49.43Z"></path><path class="cls-1" d="M2719.08,150.08c-6.05,0-10.91,1.84-14.57,5.49-3.66,3.66-5.49,8.52-5.49,14.57v138.98c0,13.06-3.51,24.6-10.51,34.63-7.01,10.03-16.56,17.99-28.66,23.88-12.1,5.9-25.63,8.83-40.6,8.83s-29.61-3.1-42.03-9.31c-12.42-6.21-22.29-15.44-29.61-27.7-7.33-12.25-10.99-28.1-10.99-47.52v-121.79c0-5.73-1.91-10.51-5.73-14.33-3.82-3.82-8.6-5.73-14.33-5.73s-10.51,1.91-14.33,5.73c-3.82,3.82-5.73,8.6-5.73,14.33v121.79c0,26.43,5.09,48.72,15.28,66.86,10.19,18.15,24.12,31.92,41.79,41.31,17.67,9.4,37.81,14.09,60.42,14.09,20.69,0,39.48-4.61,56.36-13.85,11.06-6.05,20.6-13.51,28.66-22.37v12.82c0,6.37,1.83,11.39,5.49,15.04,3.66,3.66,8.51,5.49,14.57,5.49s10.98-1.83,14.81-5.49c3.82-3.66,5.73-8.67,5.73-15.04v-220.65c0-6.04-1.91-10.9-5.73-14.57-3.82-3.66-8.76-5.49-14.81-5.49Z"></path><path class="cls-1" d="M2845.4,55.04c-5.57-5.09-12.02-7.64-19.34-7.64s-13.78,2.55-19.34,7.64c-5.57,5.1-8.36,11.63-8.36,19.58s2.7,14.25,8.12,19.82c5.41,5.57,11.94,8.36,19.58,8.36s14.16-2.78,19.58-8.36c5.41-5.57,8.12-12.18,8.12-19.82s-2.79-14.48-8.36-19.58Z"></path><path class="cls-1" d="M2826.53,150.08c-6.05,0-10.98,1.84-14.81,5.49-3.82,3.66-5.73,8.68-5.73,15.04v220.17c0,6.37,1.91,11.39,5.73,15.04,3.82,3.66,8.75,5.49,14.81,5.49s10.9-1.83,14.57-5.49c3.66-3.66,5.49-8.67,5.49-15.04v-220.17c0-6.37-1.84-11.38-5.49-15.04-3.66-3.66-8.52-5.49-14.57-5.49Z"></path><path class="cls-1" d="M2983.18,371.69h-11.94c-8.28,0-15.04-4.22-20.3-12.66-5.25-8.43-7.88-19.18-7.88-32.24V58.38c0-6.04-1.84-10.9-5.49-14.57-3.66-3.66-8.36-5.49-14.09-5.49-6.05,0-10.91,1.84-14.57,5.49-3.66,3.66-5.49,8.52-5.49,14.57v268.41c0,16.56,2.87,31.21,8.6,43.94,5.73,12.74,13.69,22.69,23.88,29.85,10.19,7.16,21.97,10.75,35.34,10.75h4.3c7.32,0,13.29-1.83,17.91-5.49,4.61-3.66,6.92-8.51,6.92-14.57,0-5.73-1.6-10.42-4.78-14.09-3.19-3.66-7.33-5.49-12.42-5.49Z"></path><path class="cls-1" d="M3240.61,38.32c-5.73,0-10.59,1.84-14.57,5.49-3.99,3.66-5.97,8.68-5.97,15.04v136.59c-10.51-14.33-24.12-25.87-40.83-34.63-16.72-8.75-35.42-13.13-56.12-13.13-24.2,0-45.85,5.81-64.95,17.43-19.1,11.63-34.23,27.46-45.37,47.52-11.15,20.06-16.72,42.67-16.72,67.82s5.81,48.24,17.43,68.3c11.62,20.06,27.46,35.9,47.52,47.52,20.06,11.63,42.66,17.43,67.82,17.43s47.12-5.81,66.86-17.43c19.74-11.62,35.42-27.38,47.04-47.28,11.62-19.89,17.75-42.27,18.39-67.1V58.86c0-6.37-1.91-11.38-5.73-15.04-3.82-3.66-8.76-5.49-14.81-5.49ZM3209.33,329.9c-8.12,14.49-19.1,26.03-32.96,34.63s-29.69,12.9-47.52,12.9-33.36-4.3-47.52-12.9c-14.17-8.6-25.4-20.13-33.67-34.63-8.28-14.49-12.42-30.96-12.42-49.43s4.13-34.54,12.42-49.19c8.28-14.64,19.5-26.19,33.67-34.63,14.16-8.43,30.01-12.66,47.52-12.66s33.67,4.22,47.52,12.66c13.85,8.44,24.84,19.98,32.96,34.63,8.12,14.65,12.18,31.04,12.18,49.19s-4.06,34.95-12.18,49.43Z"></path><path class="cls-1" d="M3512.87,159.15c-16.4-7.64-34.31-11.46-53.73-11.46-24.52,0-46.17,5.81-64.95,17.43-18.79,11.63-33.6,27.46-44.42,47.52-10.83,20.06-16.24,42.83-16.24,68.3s5.65,47.76,16.96,67.82c11.3,20.06,26.75,35.9,46.33,47.52,19.58,11.63,41.95,17.43,67.1,17.43,34.7,0,63.68-10.66,86.92-32,3.5-3.18,5.01-7,4.54-11.46-.48-4.46-2.63-8.43-6.45-11.94-3.51-2.87-7.33-4.13-11.46-3.82-4.14.32-8.12,2.08-11.94,5.25-7.96,7.01-17.12,12.18-27.46,15.52-10.35,3.34-21.73,5.01-34.15,5.01-18.47,0-34.86-4.3-49.19-12.9s-25.48-20.37-33.43-35.34c-7.96-14.96-11.94-32-11.94-51.1s3.74-36.61,11.22-51.58c7.48-14.96,17.98-26.75,31.52-35.34,13.53-8.6,29.21-12.9,47.04-12.9,28.01,0,51.26,10.51,69.73,31.52,3.18,3.82,6.92,6.13,11.22,6.92,4.3.8,8.19-.07,11.7-2.63,4.46-3.18,7.16-6.92,8.12-11.22.96-4.3-.32-8.36-3.82-12.18-12.42-15.28-26.83-26.75-43.22-34.39Z"></path><path class="cls-1" d="M3673.57,375.03h-11.94c-8.6,0-15.69-4.3-21.25-12.9-5.57-8.6-8.36-19.74-8.36-33.43V56.47c0-5.41-1.67-9.79-5.01-13.13-3.34-3.34-7.72-5.01-13.13-5.01s-9.79,1.67-13.13,5.01c-3.34,3.34-5.02,7.72-5.02,13.13v272.23c0,16.24,2.78,30.57,8.36,42.98,5.57,12.42,13.37,22.13,23.4,29.13,10.03,7.01,21.41,10.51,34.15,10.51h6.21c6.37,0,11.54-1.67,15.52-5.01,3.98-3.34,5.97-7.72,5.97-13.13s-1.43-9.79-4.3-13.13c-2.87-3.34-6.69-5.01-11.46-5.01Z"></path><path class="cls-1" d="M3886.34,164.89c-19.9-11.46-42.59-17.19-68.06-17.19s-48.24,5.73-68.3,17.19c-20.06,11.46-35.82,27.22-47.28,47.28-11.46,20.06-17.19,42.98-17.19,68.77s5.73,48.24,17.19,68.3c11.46,20.06,27.22,35.82,47.28,47.28,20.06,11.46,42.82,17.19,68.3,17.19s48.16-5.73,68.06-17.19c19.9-11.46,35.66-27.22,47.28-47.28,11.62-20.06,17.43-42.82,17.43-68.3-.32-25.79-6.21-48.72-17.67-68.77-11.46-20.06-27.15-35.82-47.04-47.28ZM3902.34,332.05c-8.28,14.97-19.75,26.75-34.39,35.34-14.65,8.6-31.21,12.9-49.67,12.9s-35.03-4.3-49.67-12.9c-14.65-8.6-26.19-20.37-34.63-35.34-8.44-14.96-12.66-32-12.66-51.1s4.22-36.22,12.66-51.34c8.43-15.12,19.98-26.98,34.63-35.58,14.64-8.6,31.2-12.9,49.67-12.9s35.02,4.3,49.67,12.9c14.64,8.6,26.1,20.46,34.39,35.58,8.28,15.13,12.42,32.24,12.42,51.34s-4.14,36.14-12.42,51.1Z"></path><path class="cls-1" d="M4215.17,150.08c-5.42,0-9.79,1.67-13.13,5.01-3.34,3.34-5.01,7.72-5.01,13.13v141.37c0,13.37-3.66,25.31-10.98,35.82-7.33,10.51-17.28,18.79-29.85,24.84-12.58,6.05-26.67,9.07-42.27,9.07s-30.8-3.18-43.7-9.55c-12.9-6.37-23.09-15.92-30.57-28.66-7.49-12.73-11.22-28.97-11.22-48.72v-124.18c0-5.09-1.75-9.39-5.25-12.9-3.51-3.5-7.96-5.25-13.37-5.25-5.1,0-9.39,1.75-12.89,5.25-3.51,3.51-5.25,7.81-5.25,12.9v124.18c0,26.11,5.17,48.24,15.52,66.39,10.34,18.15,24.43,31.92,42.27,41.31,17.83,9.4,38.04,14.09,60.66,14.09,20.69,0,39.48-4.54,56.36-13.61,11.89-6.39,22.07-14.46,30.57-24.17v16.29c0,5.73,1.67,10.27,5.01,13.61,3.34,3.34,7.72,5.01,13.13,5.01s9.87-1.67,13.37-5.01c3.5-3.34,5.25-7.88,5.25-13.61v-224.47c0-5.41-1.75-9.79-5.25-13.13-3.51-3.34-7.96-5.01-13.37-5.01Z"></path><path class="cls-1" d="M4539.93,43.34c-3.51-3.34-7.96-5.01-13.37-5.01s-9.87,1.67-13.37,5.01c-3.51,3.34-5.25,7.88-5.25,13.61v140.41c-10.51-14.96-24.36-26.98-41.55-36.06-17.19-9.07-36.46-13.61-57.79-13.61-24.52,0-46.49,5.81-65.91,17.43-19.42,11.63-34.79,27.46-46.09,47.52-11.31,20.06-16.96,42.67-16.96,67.82s5.81,48.24,17.43,68.3c11.62,20.06,27.46,35.9,47.52,47.52,20.06,11.63,42.66,17.43,67.82,17.43s47.2-5.73,67.1-17.19c19.89-11.46,35.66-27.14,47.28-47.04,11.62-19.89,17.75-42.27,18.39-67.1V56.95c0-5.73-1.75-10.27-5.25-13.61ZM4496.23,331.57c-8.44,14.97-19.9,26.83-34.39,35.58-14.49,8.76-30.97,13.13-49.43,13.13s-34.55-4.37-49.19-13.13c-14.65-8.75-26.27-20.61-34.87-35.58-8.6-14.96-12.89-32-12.89-51.1s4.3-35.74,12.89-50.87c8.6-15.12,20.22-26.98,34.87-35.58,14.64-8.6,31.04-12.9,49.19-12.9s34.94,4.3,49.43,12.9c14.48,8.6,25.95,20.46,34.39,35.58,8.43,15.13,12.66,32.08,12.66,50.87s-4.22,36.14-12.66,51.1Z"></path></g><g><g class="cls-3"><path class="cls-1" d="M361.44,143.03c26.26,26.26,26.26,68.83,0,95.08l-7.93,7.93-115.4-115.41c-26.26-26.26-68.83-26.26-95.09,0L27.62,246.04l-7.93-7.93c-26.26-26.26-26.26-68.83,0-95.08L143.02,19.69c26.26-26.26,68.83-26.26,95.09,0l123.33,123.34Z"></path></g><path class="cls-1" d="M361.44,253.96c26.26,26.26,26.26,68.83,0,95.08l-123.33,123.34c-26.26,26.26-68.83,26.26-95.09,0l-123.33-123.34c-26.26-26.26-26.26-68.83,0-95.08l7.93-7.93,115.4,115.41c26.26,26.26,68.83,26.26,95.09,0l115.4-115.41,7.93,7.93Z"></path><path class="cls-2" d="M238.11,130.63l115.4,115.41-115.4,115.41c-26.26,26.26-68.83,26.26-95.09,0L27.62,246.04l115.4-115.41c26.26-26.26,68.83-26.26,95.09,0Z"></path></g></svg> 