<svg width="130" height="40" fill="none" xmlns="http://www.w3.org/2000/svg"><path d="m30.658 22.07-1.17 7.366 6.965 2.672v-6.693l-5.795-3.345Z" fill="#A299FF"/><path d="M.309 28.76V11.236l5.796 1.838v12.339l9.38 5.415.7 2.671-.7 4.022L.308 28.76Z" fill="#7366FF"/><path d="m15.486 9.17-9.38 5.414-5.797-3.347 15.173-8.76 15.176 8.76-3.202 2.551-2.591.797-9.38-5.415Z" fill="#7366FF"/><path d="m36.455 32.105-5.797 3.349-5.793-3.349v-6.69l11.59 6.69Z" fill="#5219FF"/><path d="m15.486 13.322-.004 6.692 5.799 3.345-.001-6.692-5.794-3.345Z" fill="#A299FF"/><path d="M15.482 20.016 9.688 23.36l5.795 3.347 5.798-3.347-5.799-3.345Z" fill="#5219FF"/><path d="M15.486 13.322 9.688 16.67v6.69l5.794-3.346.004-6.692Z" fill="#7366FF"/><path d="M30.658 11.236V22.07l-5.793 3.344v-10.83l5.793-3.347Z" fill="url(#a)"/><path d="m30.66 22.066-15.175 8.762v6.694l15.174-8.763.001-6.693Z" fill="url(#b)"/><path d="M66.69 27.65a7.01 7.01 0 0 1 4.984-11.993 6.963 6.963 0 0 1 7.036 7.009 7.066 7.066 0 0 1-12.02 4.983Zm4.984-.773a4.019 4.019 0 0 0 2.958-1.2 4.38 4.38 0 0 0 0-6.023 4.248 4.248 0 0 0-5.916 0 4.38 4.38 0 0 0 0 6.023 4.021 4.021 0 0 0 2.958 1.2ZM89.34 16h3.145l-5.197 13.325h-3.33L78.76 16h3.145l3.731 10.127L89.34 16ZM95.56 23.89c.427 2.025 2.053 3.144 4.265 3.144 1.519 0 2.665-.56 3.437-1.652l2.372 1.386c-1.306 1.945-3.251 2.905-5.836 2.905-2.159 0-3.918-.666-5.25-1.972a6.83 6.83 0 0 1-1.999-5.037 6.834 6.834 0 0 1 1.972-4.984c1.306-1.36 3.012-2.025 5.064-2.025a6.245 6.245 0 0 1 4.797 2.052 7.124 7.124 0 0 1 1.892 4.983c-.005.402-.04.803-.107 1.2H95.561Zm7.809-2.346c-.4-2.159-1.919-3.278-3.81-3.278-2.133 0-3.625 1.253-4.025 3.278h7.835ZM111.046 18.239c.719-1.653 2.105-2.239 4.104-2.239v2.835a4.635 4.635 0 0 0-2.878.843c-.826.586-1.226 1.572-1.226 2.931v6.716h-2.879V16h2.879v2.239ZM126.268 16h3.065l-5.117 13.752c-1.279 3.437-3.438 5.09-6.503 4.903v-2.691c1.813.106 2.825-.773 3.545-2.612l.133-.267L115.741 16h3.145l3.971 9.674L126.268 16ZM63.692 27.033l-2.601-1.502a9.35 9.35 0 0 0 1.721-5.533 9.686 9.686 0 0 0-16.523-6.85 9.252 9.252 0 0 0-2.825 6.85 9.6 9.6 0 0 0 9.674 9.674 9.807 9.807 0 0 0 4.984-1.359c.326-.187.636-.4.928-.637l4.642 2.679v-3.322Zm-10.554-.346a6.394 6.394 0 0 1-4.69-1.918 6.89 6.89 0 0 1 0-9.541 6.693 6.693 0 0 1 9.38 0 6.49 6.49 0 0 1 1.92 4.77 6.672 6.672 0 0 1-1.284 4.016l-5.326-3.075v3.325l2.978 1.719c-.111.059-.18.091-.18.091a6.696 6.696 0 0 1-2.798.613Z" fill="#fff"/><defs><linearGradient id="a" x1="27.762" y1="11.236" x2="27.762" y2="25.413" gradientUnits="userSpaceOnUse"><stop offset=".25" stop-color="#7366FF"/><stop offset="1" stop-color="#5219FF"/></linearGradient><linearGradient id="b" x1="15.485" y1="29.794" x2="30.66" y2="29.794" gradientUnits="userSpaceOnUse"><stop stop-color="#7366FF"/><stop offset="1" stop-color="#A299FF"/></linearGradient></defs></svg>