<svg width="134" height="38" viewBox="0 0 134 38" fill="none" xmlns="http://www.w3.org/2000/svg">
<path fill-rule="evenodd" clip-rule="evenodd" d="M15.7609 12.4981C15.212 13.2744 15.3914 14.3481 16.1629 14.9037L25.5077 21.634C25.7341 21.7971 25.7398 22.1322 25.5189 22.3028L17.7113 28.3341C16.9672 28.9089 16.8167 29.9718 17.3719 30.7305C17.9463 31.5155 19.0538 31.6746 19.826 31.0831L28.6137 24.3509C29.3553 23.7828 29.7901 22.9018 29.7901 21.9676C29.7901 21.0009 29.3246 20.0933 28.5395 19.5293L18.1858 12.0914C17.4048 11.5303 16.3162 11.7129 15.7609 12.4981Z" fill="#222452"/>
<path fill-rule="evenodd" clip-rule="evenodd" d="M4.75256 13.1469C4.42785 13.6245 4.25421 14.1886 4.25421 14.7661V31.133C4.25421 31.6888 4.88165 32.0128 5.33483 31.691L6.98754 30.5176C7.44481 30.193 7.71648 29.6669 7.71648 29.1061V16.9206C7.71648 16.5825 8.09766 16.3847 8.37411 16.5795L15.7048 21.7443C15.9434 21.9124 15.9401 22.2672 15.6985 22.4309L13.3545 24.0188C12.5561 24.5597 12.3577 25.6508 12.9144 26.4381C13.4599 27.2095 14.5252 27.3972 15.3014 26.8587L18.8693 24.3834C19.6338 23.8531 20.0898 22.9817 20.0898 22.0513C20.0898 21.139 19.6513 20.2823 18.9112 19.7489L8.34367 12.131C7.19623 11.43 5.70055 11.7528 4.94444 12.8648L4.75256 13.1469Z" fill="#222452"/>
<mask id="path-3-outside-1_681_78634" maskUnits="userSpaceOnUse" x="39.24" y="11.064" width="95" height="22" fill="black">
<rect fill="white" x="39.24" y="11.064" width="95" height="22"/>
<path d="M39.6194 32.064V16.6289H42.7816V18.4448H43.2825C43.7835 17.1611 44.8793 16.5662 46.5386 16.5662H48.3858V19.4779H46.4134C44.3157 19.4779 42.8442 20.605 42.8442 22.9845V32.064H39.6194ZM56.3739 32.5023C51.6776 32.5023 48.5468 29.3401 48.5468 24.5499V24.1742C48.5468 19.3527 51.7089 16.1905 56.2487 16.1905C60.6945 16.1905 63.7001 19.3214 63.7001 24.0177V25.2387H51.8342C51.9281 27.9625 53.8379 29.6845 56.4365 29.6845C58.8786 29.6845 59.9431 28.4322 60.6005 26.992L63.2931 28.3696C62.3538 30.1541 60.5379 32.5023 56.3739 32.5023ZM51.8655 22.7653H60.444C60.2562 20.4485 58.6281 19.0396 56.2174 19.0396C53.7753 19.0396 52.1786 20.4485 51.8655 22.7653ZM72.0277 32.5023C68.0828 32.5023 65.3276 30.749 64.7641 27.2111L67.7697 26.491C68.208 29.0897 69.9613 29.9037 72.0277 29.9037C74.0627 29.9037 75.2211 29.0583 75.2211 27.7747C75.2211 26.5224 74.1566 26.0527 72.1529 25.677L71.0571 25.4892C67.9263 24.9256 65.4216 23.7046 65.4216 20.7929C65.4216 17.8812 67.7697 16.1905 71.3702 16.1905C74.8454 16.1905 77.1623 17.8499 77.8197 20.5424L74.8141 21.3878C74.4697 19.5092 73.1861 18.8205 71.3702 18.8205C69.5856 18.8205 68.5524 19.5092 68.5524 20.6677C68.5524 21.92 69.5856 22.3896 71.2763 22.7027L72.3721 22.8906C75.7221 23.4854 78.3833 24.4873 78.3833 27.6182C78.3833 30.7177 75.8786 32.5023 72.0277 32.5023ZM85.7298 32.064C83.82 32.064 82.6616 30.8742 82.6616 28.9644V19.3527H78.4036V16.6289H82.6616V11.5256H85.8863V16.6289H90.4887V19.3527H85.8863V28.4009C85.8863 29.027 86.1681 29.3401 86.763 29.3401H89.9877V32.064H85.7298ZM97.1584 32.5023C93.871 32.5023 91.3663 30.749 91.3663 27.6182C91.3663 24.4873 93.871 22.8593 97.2523 22.8593H101.949V21.8574C101.949 20.0728 100.884 18.8831 98.6299 18.8831C96.407 18.8831 95.3112 20.0415 94.9355 21.7008L91.9299 20.7303C92.6813 18.2882 94.7163 16.1905 98.6612 16.1905C102.669 16.1905 105.111 18.3195 105.111 22.0765V28.4322C105.111 29.0583 105.424 29.3714 105.987 29.3714H107.302V32.064H104.892C103.451 32.064 102.45 31.2499 102.45 29.9663V29.8724H101.949C101.479 30.8742 100.352 32.5023 97.1584 32.5023ZM97.628 29.8411C100.195 29.8411 101.949 28.2756 101.949 25.677V25.3639H97.4402C95.7182 25.3639 94.5911 26.1153 94.5911 27.5242C94.5911 28.9331 95.7182 29.8411 97.628 29.8411ZM113.281 32.064C111.371 32.064 110.213 30.8742 110.213 28.9644V19.3527H105.955V16.6289H110.213V11.5256H113.438V16.6289H118.04V19.3527H113.438V28.4009C113.438 29.027 113.72 29.3401 114.314 29.3401H117.539V32.064H113.281ZM126.476 32.5023C121.779 32.5023 118.648 29.3401 118.648 24.5499V24.1742C118.648 19.3527 121.811 16.1905 126.35 16.1905C130.796 16.1905 133.802 19.3214 133.802 24.0177V25.2387H121.936C122.03 27.9625 123.94 29.6845 126.538 29.6845C128.98 29.6845 130.045 28.4322 130.702 26.992L133.395 28.3696C132.456 30.1541 130.64 32.5023 126.476 32.5023ZM121.967 22.7653H130.546C130.358 20.4485 128.73 19.0396 126.319 19.0396C123.877 19.0396 122.28 20.4485 121.967 22.7653Z"/>
</mask>
<path d="M39.6194 32.064V16.6289H42.7816V18.4448H43.2825C43.7835 17.1611 44.8793 16.5662 46.5386 16.5662H48.3858V19.4779H46.4134C44.3157 19.4779 42.8442 20.605 42.8442 22.9845V32.064H39.6194ZM56.3739 32.5023C51.6776 32.5023 48.5468 29.3401 48.5468 24.5499V24.1742C48.5468 19.3527 51.7089 16.1905 56.2487 16.1905C60.6945 16.1905 63.7001 19.3214 63.7001 24.0177V25.2387H51.8342C51.9281 27.9625 53.8379 29.6845 56.4365 29.6845C58.8786 29.6845 59.9431 28.4322 60.6005 26.992L63.2931 28.3696C62.3538 30.1541 60.5379 32.5023 56.3739 32.5023ZM51.8655 22.7653H60.444C60.2562 20.4485 58.6281 19.0396 56.2174 19.0396C53.7753 19.0396 52.1786 20.4485 51.8655 22.7653ZM72.0277 32.5023C68.0828 32.5023 65.3276 30.749 64.7641 27.2111L67.7697 26.491C68.208 29.0897 69.9613 29.9037 72.0277 29.9037C74.0627 29.9037 75.2211 29.0583 75.2211 27.7747C75.2211 26.5224 74.1566 26.0527 72.1529 25.677L71.0571 25.4892C67.9263 24.9256 65.4216 23.7046 65.4216 20.7929C65.4216 17.8812 67.7697 16.1905 71.3702 16.1905C74.8454 16.1905 77.1623 17.8499 77.8197 20.5424L74.8141 21.3878C74.4697 19.5092 73.1861 18.8205 71.3702 18.8205C69.5856 18.8205 68.5524 19.5092 68.5524 20.6677C68.5524 21.92 69.5856 22.3896 71.2763 22.7027L72.3721 22.8906C75.7221 23.4854 78.3833 24.4873 78.3833 27.6182C78.3833 30.7177 75.8786 32.5023 72.0277 32.5023ZM85.7298 32.064C83.82 32.064 82.6616 30.8742 82.6616 28.9644V19.3527H78.4036V16.6289H82.6616V11.5256H85.8863V16.6289H90.4887V19.3527H85.8863V28.4009C85.8863 29.027 86.1681 29.3401 86.763 29.3401H89.9877V32.064H85.7298ZM97.1584 32.5023C93.871 32.5023 91.3663 30.749 91.3663 27.6182C91.3663 24.4873 93.871 22.8593 97.2523 22.8593H101.949V21.8574C101.949 20.0728 100.884 18.8831 98.6299 18.8831C96.407 18.8831 95.3112 20.0415 94.9355 21.7008L91.9299 20.7303C92.6813 18.2882 94.7163 16.1905 98.6612 16.1905C102.669 16.1905 105.111 18.3195 105.111 22.0765V28.4322C105.111 29.0583 105.424 29.3714 105.987 29.3714H107.302V32.064H104.892C103.451 32.064 102.45 31.2499 102.45 29.9663V29.8724H101.949C101.479 30.8742 100.352 32.5023 97.1584 32.5023ZM97.628 29.8411C100.195 29.8411 101.949 28.2756 101.949 25.677V25.3639H97.4402C95.7182 25.3639 94.5911 26.1153 94.5911 27.5242C94.5911 28.9331 95.7182 29.8411 97.628 29.8411ZM113.281 32.064C111.371 32.064 110.213 30.8742 110.213 28.9644V19.3527H105.955V16.6289H110.213V11.5256H113.438V16.6289H118.04V19.3527H113.438V28.4009C113.438 29.027 113.72 29.3401 114.314 29.3401H117.539V32.064H113.281ZM126.476 32.5023C121.779 32.5023 118.648 29.3401 118.648 24.5499V24.1742C118.648 19.3527 121.811 16.1905 126.35 16.1905C130.796 16.1905 133.802 19.3214 133.802 24.0177V25.2387H121.936C122.03 27.9625 123.94 29.6845 126.538 29.6845C128.98 29.6845 130.045 28.4322 130.702 26.992L133.395 28.3696C132.456 30.1541 130.64 32.5023 126.476 32.5023ZM121.967 22.7653H130.546C130.358 20.4485 128.73 19.0396 126.319 19.0396C123.877 19.0396 122.28 20.4485 121.967 22.7653Z" fill="#222452"/>
<path d="M39.6194 32.064H39.5194V32.164H39.6194V32.064ZM39.6194 16.6289V16.5289H39.5194V16.6289H39.6194ZM42.7816 16.6289H42.8816V16.5289H42.7816V16.6289ZM42.7816 18.4448H42.6816V18.5448H42.7816V18.4448ZM43.2825 18.4448V18.5448H43.3509L43.3757 18.4811L43.2825 18.4448ZM48.3858 16.5662H48.4858V16.4662H48.3858V16.5662ZM48.3858 19.4779V19.5779H48.4858V19.4779H48.3858ZM42.8442 32.064V32.164H42.9442V32.064H42.8442ZM39.7194 32.064V16.6289H39.5194V32.064H39.7194ZM39.6194 16.7289H42.7816V16.5289H39.6194V16.7289ZM42.6816 16.6289V18.4448H42.8816V16.6289H42.6816ZM42.7816 18.5448H43.2825V18.3448H42.7816V18.5448ZM43.3757 18.4811C43.6185 17.859 44.0031 17.408 44.5256 17.1111C45.0499 16.8131 45.7201 16.6662 46.5386 16.6662V16.4662C45.6978 16.4662 44.9904 16.6169 44.4268 16.9372C43.8613 17.2586 43.4475 17.7469 43.1894 18.4084L43.3757 18.4811ZM46.5386 16.6662H48.3858V16.4662H46.5386V16.6662ZM48.2858 16.5662V19.4779H48.4858V16.5662H48.2858ZM48.3858 19.3779H46.4134V19.5779H48.3858V19.3779ZM46.4134 19.3779C45.3476 19.3779 44.4282 19.6644 43.7745 20.2653C43.1194 20.8675 42.7442 21.7735 42.7442 22.9845H42.9442C42.9442 21.8161 43.3048 20.9687 43.9098 20.4125C44.5163 19.8551 45.3815 19.5779 46.4134 19.5779V19.3779ZM42.7442 22.9845V32.064H42.9442V22.9845H42.7442ZM42.8442 31.964H39.6194V32.164H42.8442V31.964ZM63.7001 25.2387V25.3387H63.8001V25.2387H63.7001ZM51.8342 25.2387V25.1387H51.7307L51.7342 25.2422L51.8342 25.2387ZM60.6005 26.992L60.6461 26.903L60.553 26.8553L60.5096 26.9505L60.6005 26.992ZM63.2931 28.3696L63.3816 28.4161L63.4287 28.3266L63.3386 28.2805L63.2931 28.3696ZM51.8655 22.7653L51.7664 22.7519L51.751 22.8653H51.8655V22.7653ZM60.444 22.7653V22.8653H60.5524L60.5437 22.7573L60.444 22.7653ZM56.3739 32.4023C54.0488 32.4023 52.1189 31.62 50.7704 30.2522C49.4218 28.8843 48.6468 26.9229 48.6468 24.5499H48.4468C48.4468 26.9672 49.2371 28.9819 50.628 30.3926C52.019 31.8035 54.0027 32.6023 56.3739 32.6023V32.4023ZM48.6468 24.5499V24.1742H48.4468V24.5499H48.6468ZM48.6468 24.1742C48.6468 21.7857 49.4296 19.8161 50.7669 18.4441C52.1041 17.0723 54.0027 16.2905 56.2487 16.2905V16.0905C53.9549 16.0905 52.0026 16.8899 50.6237 18.3045C49.245 19.719 48.4468 21.7412 48.4468 24.1742H48.6468ZM56.2487 16.2905C58.4472 16.2905 60.2829 17.0641 61.5692 18.412C62.8559 19.7604 63.6001 21.6911 63.6001 24.0177H63.8001C63.8001 21.648 63.0415 19.6651 61.7139 18.274C60.3859 16.8824 58.4959 16.0905 56.2487 16.0905V16.2905ZM63.6001 24.0177V25.2387H63.8001V24.0177H63.6001ZM63.7001 25.1387H51.8342V25.3387H63.7001V25.1387ZM51.7342 25.2422C51.782 26.6275 52.2922 27.7647 53.1273 28.5557C53.9621 29.3463 55.1148 29.7845 56.4365 29.7845V29.5845C55.1596 29.5845 54.0581 29.1618 53.2648 28.4104C52.4719 27.6594 51.9803 26.5738 51.9341 25.2353L51.7342 25.2422ZM56.4365 29.7845C57.6758 29.7845 58.5745 29.4663 59.248 28.9582C59.92 28.4512 60.3592 27.7615 60.6915 27.0335L60.5096 26.9505C60.1845 27.6626 59.7627 28.3193 59.1275 28.7985C58.4939 29.2766 57.6393 29.5845 56.4365 29.5845V29.7845ZM60.555 27.081L63.2475 28.4586L63.3386 28.2805L60.6461 26.903L60.555 27.081ZM63.2046 28.323C62.7387 29.2082 62.0585 30.227 60.9832 31.0248C59.9094 31.8215 58.4356 32.4023 56.3739 32.4023V32.6023C58.4763 32.6023 59.9924 32.009 61.1024 31.1855C62.2108 30.363 62.9082 29.3155 63.3816 28.4161L63.2046 28.323ZM51.8655 22.8653H60.444V22.6653H51.8655V22.8653ZM60.5437 22.7573C60.4479 21.5765 59.9841 20.6196 59.2302 19.9585C58.4768 19.2978 57.4422 18.9396 56.2174 18.9396V19.1396C57.4032 19.1396 58.388 19.4859 59.0983 20.1089C59.8081 20.7313 60.2522 21.6374 60.3443 22.7734L60.5437 22.7573ZM56.2174 18.9396C54.9768 18.9396 53.9426 19.2978 53.1777 19.958C52.4128 20.6182 51.9256 21.5734 51.7664 22.7519L51.9646 22.7787C52.1184 21.6404 52.5862 20.7327 53.3084 20.1094C54.0307 19.4859 55.0158 19.1396 56.2174 19.1396V18.9396ZM64.7641 27.2111L64.7408 27.1139L64.6508 27.1355L64.6653 27.2269L64.7641 27.2111ZM67.7697 26.491L67.8683 26.4744L67.8505 26.3689L67.7464 26.3938L67.7697 26.491ZM72.1529 25.677L72.1713 25.5787L72.1698 25.5785L72.1529 25.677ZM71.0571 25.4892L71.0394 25.5876L71.0402 25.5877L71.0571 25.4892ZM77.8197 20.5424L77.8468 20.6387L77.9398 20.6125L77.9169 20.5187L77.8197 20.5424ZM74.8141 21.3878L74.7158 21.4058L74.7356 21.5137L74.8412 21.484L74.8141 21.3878ZM71.2763 22.7027L71.2581 22.8011L71.2594 22.8013L71.2763 22.7027ZM72.3721 22.8906L72.3895 22.7921L72.389 22.792L72.3721 22.8906ZM72.0277 32.4023C70.069 32.4023 68.4161 31.9669 67.1854 31.1016C65.9569 30.2379 65.1407 28.9399 64.8628 27.1954L64.6653 27.2269C64.951 29.0203 65.7941 30.3679 67.0704 31.2652C68.3444 32.161 70.0414 32.6023 72.0277 32.6023V32.4023ZM64.7874 27.3084L67.793 26.5883L67.7464 26.3938L64.7408 27.1139L64.7874 27.3084ZM67.6711 26.5077C67.8939 27.8284 68.4536 28.7073 69.2307 29.2536C70.005 29.7981 70.9828 30.0037 72.0277 30.0037V29.8037C71.0061 29.8037 70.0742 29.6023 69.3457 29.09C68.6199 28.5797 68.0839 27.7523 67.8683 26.4744L67.6711 26.5077ZM72.0277 30.0037C73.0572 30.0037 73.8778 29.7901 74.444 29.4031C75.014 29.0135 75.3211 28.451 75.3211 27.7747H75.1211C75.1211 28.382 74.8491 28.884 74.3311 29.238C73.8094 29.5946 73.0331 29.8037 72.0277 29.8037V30.0037ZM75.3211 27.7747C75.3211 27.4469 75.2513 27.1648 75.11 26.9213C74.9689 26.678 74.7601 26.4792 74.4912 26.3122C73.9572 25.9805 73.1735 25.7666 72.1713 25.5787L72.1345 25.7753C73.1361 25.9631 73.8865 26.172 74.3857 26.4821C74.6334 26.636 74.8159 26.8128 74.937 27.0216C75.0579 27.2301 75.1211 27.4763 75.1211 27.7747H75.3211ZM72.1698 25.5785L71.074 25.3906L71.0402 25.5877L72.136 25.7756L72.1698 25.5785ZM71.0748 25.3908C69.5146 25.1099 68.1234 24.6671 67.1241 23.9407C66.1302 23.2182 65.5216 22.2141 65.5216 20.7929H65.3216C65.3216 22.2834 65.9653 23.3456 67.0065 24.1025C68.0422 24.8554 69.4687 25.3049 71.0394 25.5876L71.0748 25.3908ZM65.5216 20.7929C65.5216 19.3671 66.0949 18.2465 67.1061 17.4795C68.1206 16.7101 69.5841 16.2905 71.3702 16.2905V16.0905C69.5558 16.0905 68.045 16.5164 66.9853 17.3202C65.9223 18.1264 65.3216 19.307 65.3216 20.7929H65.5216ZM71.3702 16.2905C73.0922 16.2905 74.5193 16.7016 75.5951 17.4393C76.6698 18.1762 77.3995 19.2429 77.7226 20.5662L77.9169 20.5187C77.5825 19.1494 76.825 18.0402 75.7082 17.2743C74.5923 16.5092 73.1234 16.0905 71.3702 16.0905V16.2905ZM77.7927 20.4462L74.787 21.2915L74.8412 21.484L77.8468 20.6387L77.7927 20.4462ZM74.9125 21.3697C74.7364 20.4094 74.3174 19.7421 73.7007 19.3173C73.0868 18.8945 72.2892 18.7205 71.3702 18.7205V18.9205C72.267 18.9205 73.0192 19.0908 73.5872 19.482C74.1524 19.8713 74.5474 20.4876 74.7158 21.4058L74.9125 21.3697ZM71.3702 18.7205C70.4672 18.7205 69.7408 18.8944 69.2371 19.2261C68.7286 19.561 68.4524 20.0537 68.4524 20.6677H68.6524C68.6524 20.1232 68.8929 19.6923 69.3471 19.3932C69.8061 19.0909 70.4886 18.9205 71.3702 18.9205V18.7205ZM68.4524 20.6677C68.4524 21.3287 68.7287 21.7898 69.2249 22.1206C69.7127 22.4458 70.4112 22.6442 71.2581 22.801L71.2945 22.6044C70.4507 22.4481 69.7873 22.2552 69.3358 21.9542C68.8928 21.6588 68.6524 21.2589 68.6524 20.6677H68.4524ZM71.2594 22.8013L72.3552 22.9891L72.389 22.792L71.2932 22.6042L71.2594 22.8013ZM72.3546 22.989C74.028 23.2862 75.5131 23.6828 76.5788 24.3868C77.6366 25.0856 78.2833 26.0883 78.2833 27.6182H78.4833C78.4833 26.0171 77.7994 24.9535 76.6891 24.2199C75.5866 23.4916 74.0661 23.0898 72.3895 22.7921L72.3546 22.989ZM78.2833 27.6182C78.2833 29.1377 77.6709 30.3287 76.5895 31.1427C75.5046 31.9592 73.9392 32.4023 72.0277 32.4023V32.6023C73.967 32.6023 75.5795 32.1531 76.7097 31.3024C77.8433 30.4493 78.4833 29.1981 78.4833 27.6182H78.2833ZM82.6616 19.3527H82.7616V19.2527H82.6616V19.3527ZM78.4036 19.3527H78.3036V19.4527H78.4036V19.3527ZM78.4036 16.6289V16.5289H78.3036V16.6289H78.4036ZM82.6616 16.6289V16.7289H82.7616V16.6289H82.6616ZM82.6616 11.5256V11.4256H82.5616V11.5256H82.6616ZM85.8863 11.5256H85.9863V11.4256H85.8863V11.5256ZM85.8863 16.6289H85.7863V16.7289H85.8863V16.6289ZM90.4887 16.6289H90.5887V16.5289H90.4887V16.6289ZM90.4887 19.3527V19.4527H90.5887V19.3527H90.4887ZM85.8863 19.3527V19.2527H85.7863V19.3527H85.8863ZM89.9877 29.3401H90.0877V29.2401H89.9877V29.3401ZM89.9877 32.064V32.164H90.0877V32.064H89.9877ZM85.7298 31.964C84.796 31.964 84.0566 31.6736 83.5507 31.1602C83.0446 30.6466 82.7616 29.8991 82.7616 28.9644H82.5616C82.5616 29.9396 82.8577 30.7418 83.4083 31.3006C83.959 31.8595 84.7538 32.164 85.7298 32.164V31.964ZM82.7616 28.9644V19.3527H82.5616V28.9644H82.7616ZM82.6616 19.2527H78.4036V19.4527H82.6616V19.2527ZM78.5036 19.3527V16.6289H78.3036V19.3527H78.5036ZM78.4036 16.7289H82.6616V16.5289H78.4036V16.7289ZM82.7616 16.6289V11.5256H82.5616V16.6289H82.7616ZM82.6616 11.6256H85.8863V11.4256H82.6616V11.6256ZM85.7863 11.5256V16.6289H85.9863V11.5256H85.7863ZM85.8863 16.7289H90.4887V16.5289H85.8863V16.7289ZM90.3887 16.6289V19.3527H90.5887V16.6289H90.3887ZM90.4887 19.2527H85.8863V19.4527H90.4887V19.2527ZM85.7863 19.3527V28.4009H85.9863V19.3527H85.7863ZM85.7863 28.4009C85.7863 28.7269 85.8595 28.9908 86.0282 29.1732C86.1983 29.3571 86.4487 29.4401 86.763 29.4401V29.2401C86.4823 29.2401 86.2945 29.1666 86.175 29.0374C86.0541 28.9067 85.9863 28.701 85.9863 28.4009H85.7863ZM86.763 29.4401H89.9877V29.2401H86.763V29.4401ZM89.8877 29.3401V32.064H90.0877V29.3401H89.8877ZM89.9877 31.964H85.7298V32.164H89.9877V31.964ZM101.949 22.8593V22.9593H102.049V22.8593H101.949ZM94.9355 21.7008L94.9047 21.796L95.0088 21.8296L95.033 21.7229L94.9355 21.7008ZM91.9299 20.7303L91.8343 20.7009L91.8053 20.7951L91.8991 20.8254L91.9299 20.7303ZM107.302 29.3714H107.402V29.2714H107.302V29.3714ZM107.302 32.064V32.164H107.402V32.064H107.302ZM102.45 29.8724H102.55V29.7724H102.45V29.8724ZM101.949 29.8724V29.7724H101.885L101.858 29.8299L101.949 29.8724ZM101.949 25.3639H102.049V25.2639H101.949V25.3639ZM97.1584 32.4023C95.5313 32.4023 94.1072 31.9683 93.092 31.1562C92.0793 30.3461 91.4663 29.1541 91.4663 27.6182H91.2663C91.2663 29.2131 91.9056 30.4632 92.9671 31.3124C94.0261 32.1596 95.498 32.6023 97.1584 32.6023V32.4023ZM91.4663 27.6182C91.4663 26.0827 92.0789 24.9229 93.1019 24.1442C94.1282 23.363 95.5762 22.9593 97.2523 22.9593V22.7593C95.5471 22.7593 94.0521 23.1696 92.9807 23.9851C91.9061 24.8031 91.2663 26.0228 91.2663 27.6182H91.4663ZM97.2523 22.9593H101.949V22.7593H97.2523V22.9593ZM102.049 22.8593V21.8574H101.849V22.8593H102.049ZM102.049 21.8574C102.049 20.9452 101.776 20.1725 101.203 19.6285C100.631 19.0851 99.7738 18.7831 98.6299 18.7831V18.9831C99.7401 18.9831 100.542 19.2759 101.066 19.7735C101.589 20.2705 101.849 20.985 101.849 21.8574H102.049ZM98.6299 18.7831C97.5006 18.7831 96.6467 19.0776 96.0261 19.5928C95.406 20.1074 95.0293 20.8338 94.8379 21.6788L95.033 21.7229C95.2174 20.9086 95.5763 20.226 96.1538 19.7467C96.7308 19.2677 97.5362 18.9831 98.6299 18.9831V18.7831ZM94.9662 21.6057L91.9606 20.6351L91.8991 20.8254L94.9047 21.796L94.9662 21.6057ZM92.0254 20.7597C92.396 19.5552 93.082 18.4393 94.1583 17.6244C95.2342 16.8098 96.7071 16.2905 98.6612 16.2905V16.0905C96.6704 16.0905 95.1533 16.6202 94.0376 17.4649C92.9224 18.3093 92.2151 19.4633 91.8343 20.7009L92.0254 20.7597ZM98.6612 16.2905C100.648 16.2905 102.234 16.8182 103.322 17.7989C104.408 18.7783 105.011 20.2206 105.011 22.0765H105.211C105.211 20.1754 104.592 18.6747 103.456 17.6504C102.321 16.6273 100.682 16.0905 98.6612 16.0905V16.2905ZM105.011 22.0765V28.4322H105.211V22.0765H105.011ZM105.011 28.4322C105.011 28.7607 105.093 29.0241 105.265 29.2055C105.438 29.3877 105.687 29.4714 105.987 29.4714V29.2714C105.724 29.2714 105.535 29.1986 105.41 29.0677C105.285 28.9361 105.211 28.7298 105.211 28.4322H105.011ZM105.987 29.4714H107.302V29.2714H105.987V29.4714ZM107.202 29.3714V32.064H107.402V29.3714H107.202ZM107.302 31.964H104.892V32.164H107.302V31.964ZM104.892 31.964C104.19 31.964 103.604 31.7656 103.195 31.4201C102.788 31.076 102.55 30.58 102.55 29.9663H102.35C102.35 30.6362 102.612 31.1891 103.066 31.5729C103.518 31.9553 104.153 32.164 104.892 32.164V31.964ZM102.55 29.9663V29.8724H102.35V29.9663H102.55ZM102.45 29.7724H101.949V29.9724H102.45V29.7724ZM101.858 29.8299C101.628 30.3217 101.238 30.9629 100.517 31.4819C99.7962 32.0002 98.7372 32.4023 97.1584 32.4023V32.6023C98.773 32.6023 99.8743 32.1903 100.633 31.6442C101.392 31.0986 101.8 30.4249 102.039 29.9148L101.858 29.8299ZM97.628 29.9411C98.9318 29.9411 100.038 29.5433 100.82 28.8063C101.602 28.0685 102.049 26.9998 102.049 25.677H101.849C101.849 26.9529 101.419 27.9661 100.682 28.6608C99.9453 29.3561 98.8915 29.7411 97.628 29.7411V29.9411ZM102.049 25.677V25.3639H101.849V25.677H102.049ZM101.949 25.2639H97.4402V25.4639H101.949V25.2639ZM97.4402 25.2639C96.5665 25.2639 95.8308 25.4543 95.3108 25.8351C94.7868 26.2188 94.4911 26.7895 94.4911 27.5242H94.6911C94.6911 26.85 94.9589 26.3406 95.429 25.9964C95.903 25.6493 96.5919 25.4639 97.4402 25.4639V25.2639ZM94.4911 27.5242C94.4911 28.2582 94.786 28.8671 95.3321 29.29C95.8754 29.7108 96.6586 29.9411 97.628 29.9411V29.7411C96.6876 29.7411 95.9523 29.5174 95.4546 29.1319C94.9597 28.7486 94.6911 28.1992 94.6911 27.5242H94.4911ZM110.213 19.3527H110.313V19.2527H110.213V19.3527ZM105.955 19.3527H105.855V19.4527H105.955V19.3527ZM105.955 16.6289V16.5289H105.855V16.6289H105.955ZM110.213 16.6289V16.7289H110.313V16.6289H110.213ZM110.213 11.5256V11.4256H110.113V11.5256H110.213ZM113.438 11.5256H113.538V11.4256H113.438V11.5256ZM113.438 16.6289H113.338V16.7289H113.438V16.6289ZM118.04 16.6289H118.14V16.5289H118.04V16.6289ZM118.04 19.3527V19.4527H118.14V19.3527H118.04ZM113.438 19.3527V19.2527H113.338V19.3527H113.438ZM117.539 29.3401H117.639V29.2401H117.539V29.3401ZM117.539 32.064V32.164H117.639V32.064H117.539ZM113.281 31.964C112.347 31.964 111.608 31.6736 111.102 31.1602C110.596 30.6466 110.313 29.8991 110.313 28.9644H110.113C110.113 29.9396 110.409 30.7418 110.96 31.3006C111.511 31.8595 112.305 32.164 113.281 32.164V31.964ZM110.313 28.9644V19.3527H110.113V28.9644H110.313ZM110.213 19.2527H105.955V19.4527H110.213V19.2527ZM106.055 19.3527V16.6289H105.855V19.3527H106.055ZM105.955 16.7289H110.213V16.5289H105.955V16.7289ZM110.313 16.6289V11.5256H110.113V16.6289H110.313ZM110.213 11.6256H113.438V11.4256H110.213V11.6256ZM113.338 11.5256V16.6289H113.538V11.5256H113.338ZM113.438 16.7289H118.04V16.5289H113.438V16.7289ZM117.94 16.6289V19.3527H118.14V16.6289H117.94ZM118.04 19.2527H113.438V19.4527H118.04V19.2527ZM113.338 19.3527V28.4009H113.538V19.3527H113.338ZM113.338 28.4009C113.338 28.7269 113.411 28.9908 113.58 29.1732C113.75 29.3571 114 29.4401 114.314 29.4401V29.2401C114.034 29.2401 113.846 29.1666 113.726 29.0374C113.606 28.9067 113.538 28.701 113.538 28.4009H113.338ZM114.314 29.4401H117.539V29.2401H114.314V29.4401ZM117.439 29.3401V32.064H117.639V29.3401H117.439ZM117.539 31.964H113.281V32.164H117.539V31.964ZM133.802 25.2387V25.3387H133.902V25.2387H133.802ZM121.936 25.2387V25.1387H121.832L121.836 25.2422L121.936 25.2387ZM130.702 26.992L130.748 26.903L130.655 26.8553L130.611 26.9505L130.702 26.992ZM133.395 28.3696L133.483 28.4161L133.53 28.3266L133.44 28.2805L133.395 28.3696ZM121.967 22.7653L121.868 22.7519L121.853 22.8653H121.967V22.7653ZM130.546 22.7653V22.8653H130.654L130.645 22.7573L130.546 22.7653ZM126.476 32.4023C124.151 32.4023 122.221 31.62 120.872 30.2522C119.524 28.8843 118.748 26.9229 118.748 24.5499H118.548C118.548 26.9672 119.339 28.9819 120.73 30.3926C122.121 31.8035 124.104 32.6023 126.476 32.6023V32.4023ZM118.748 24.5499V24.1742H118.548V24.5499H118.748ZM118.748 24.1742C118.748 21.7857 119.531 19.8161 120.869 18.4441C122.206 17.0723 124.104 16.2905 126.35 16.2905V16.0905C124.057 16.0905 122.104 16.8899 120.725 18.3045C119.347 19.719 118.548 21.7412 118.548 24.1742H118.748ZM126.35 16.2905C128.549 16.2905 130.385 17.0641 131.671 18.412C132.958 19.7604 133.702 21.6911 133.702 24.0177H133.902C133.902 21.648 133.143 19.6651 131.816 18.274C130.488 16.8824 128.598 16.0905 126.35 16.0905V16.2905ZM133.702 24.0177V25.2387H133.902V24.0177H133.702ZM133.802 25.1387H121.936V25.3387H133.802V25.1387ZM121.836 25.2422C121.884 26.6275 122.394 27.7647 123.229 28.5557C124.064 29.3463 125.217 29.7845 126.538 29.7845V29.5845C125.261 29.5845 124.16 29.1618 123.367 28.4104C122.574 27.6594 122.082 26.5738 122.036 25.2353L121.836 25.2422ZM126.538 29.7845C127.778 29.7845 128.676 29.4663 129.35 28.9582C130.022 28.4512 130.461 27.7615 130.793 27.0335L130.611 26.9505C130.286 27.6626 129.864 28.3193 129.229 28.7985C128.596 29.2766 127.741 29.5845 126.538 29.5845V29.7845ZM130.657 27.081L133.349 28.4586L133.44 28.2805L130.748 26.903L130.657 27.081ZM133.306 28.323C132.84 29.2082 132.16 30.227 131.085 31.0248C130.011 31.8215 128.537 32.4023 126.476 32.4023V32.6023C128.578 32.6023 130.094 32.009 131.204 31.1855C132.313 30.363 133.01 29.3155 133.483 28.4161L133.306 28.323ZM121.967 22.8653H130.546V22.6653H121.967V22.8653ZM130.645 22.7573C130.55 21.5765 130.086 20.6196 129.332 19.9585C128.579 19.2978 127.544 18.9396 126.319 18.9396V19.1396C127.505 19.1396 128.49 19.4859 129.2 20.1089C129.91 20.7313 130.354 21.6374 130.446 22.7734L130.645 22.7573ZM126.319 18.9396C125.079 18.9396 124.044 19.2978 123.279 19.958C122.514 20.6182 122.027 21.5734 121.868 22.7519L122.066 22.7787C122.22 21.6404 122.688 20.7327 123.41 20.1094C124.132 19.4859 125.118 19.1396 126.319 19.1396V18.9396Z" fill="#222452" mask="url(#path-3-outside-1_681_78634)"/>
</svg>
