<svg width="480" height="82" viewBox="0 0 480 82" fill="none" xmlns="http://www.w3.org/2000/svg">
<rect x="382.379" y="9.18115" width="97.6214" height="44.2868" rx="4" fill="white"/>
<path d="M467.561 14.8808L466.942 18.3782C466.74 19.5169 465.874 20.4 464.783 20.6091L461.399 21.2482C460.803 21.3644 460.803 22.2474 461.399 22.352L464.783 22.991C465.885 23.2002 466.74 24.0949 466.942 25.2219L467.561 28.7193C467.673 29.3352 468.528 29.3352 468.629 28.7193L469.247 25.2219C469.45 24.0833 470.316 23.2002 471.406 22.991L474.791 22.352C475.387 22.2358 475.387 21.3527 474.791 21.2482L471.406 20.6091C470.304 20.4 469.45 19.5053 469.247 18.3782L468.629 14.8808C468.516 14.265 467.662 14.265 467.561 14.8808Z" fill="#171321"/>
<path d="M454.345 47.6684C452.034 47.6684 450.032 47.1528 448.338 46.1217C446.644 45.0905 445.33 43.6479 444.395 41.7938C443.471 39.9398 443.009 37.7733 443.009 35.2943C443.009 32.8153 443.471 30.6436 444.395 28.7791C445.33 26.9147 446.644 25.4669 448.338 24.4357C450.032 23.4045 452.034 22.8889 454.345 22.8889C456.655 22.8889 458.657 23.4045 460.351 24.4357C462.045 25.4669 463.354 26.9147 464.278 28.7791C465.213 30.6436 465.68 32.8153 465.68 35.2943C465.68 37.7733 465.213 39.9398 464.278 41.7938C463.354 43.6479 462.045 45.0905 460.351 46.1217C458.657 47.1528 456.655 47.6684 454.345 47.6684ZM454.375 43.1375C455.628 43.1375 456.675 42.7886 457.517 42.0907C458.359 41.3824 458.985 40.4346 459.396 39.2471C459.817 38.0597 460.028 36.7369 460.028 35.2787C460.028 33.81 459.817 32.482 459.396 31.2946C458.985 30.0967 458.359 29.1437 457.517 28.4354C456.675 27.7271 455.628 27.373 454.375 27.373C453.092 27.373 452.024 27.7271 451.172 28.4354C450.33 29.1437 449.699 30.0967 449.278 31.2946C448.867 32.482 448.662 33.81 448.662 35.2787C448.662 36.7369 448.867 38.0597 449.278 39.2471C449.699 40.4346 450.33 41.3824 451.172 42.0907C452.024 42.7886 453.092 43.1375 454.375 43.1375Z" fill="#171321"/>
<path d="M434.153 37.2878V23.416H439.846V47.3566H434.326V43.1015H434.074C433.529 44.4419 432.633 45.5382 431.385 46.3902C430.148 47.2423 428.623 47.6683 426.809 47.6683C425.226 47.6683 423.826 47.3202 422.61 46.624C421.404 45.9174 420.461 44.8939 419.779 43.5535C419.098 42.2027 418.757 40.5713 418.757 38.6594V23.416H424.45V37.7866C424.45 39.3036 424.869 40.509 425.708 41.4026C426.547 42.2962 427.648 42.743 429.01 42.743C429.849 42.743 430.662 42.5404 431.448 42.1352C432.234 41.7299 432.879 41.1272 433.382 40.3271C433.896 39.5167 434.153 38.5036 434.153 37.2878Z" fill="#171321"/>
<path d="M400.071 47.1417H389.233V15.5083H400.289C403.465 15.5083 406.193 16.1416 408.473 17.4082C410.763 18.6644 412.523 20.4716 413.751 22.8297C414.98 25.1878 415.594 28.0093 415.594 31.2941C415.594 34.5893 414.974 37.421 413.735 39.7894C412.507 42.1578 410.732 43.9753 408.41 45.2419C406.099 46.5084 403.319 47.1417 400.071 47.1417ZM395.027 42.1835H399.79C402.018 42.1835 403.876 41.782 405.365 40.9788C406.854 40.1653 407.973 38.9553 408.722 37.3489C409.472 35.7323 409.847 33.714 409.847 31.2941C409.847 28.8742 409.472 26.8663 408.722 25.2702C407.973 23.6638 406.864 22.4642 405.396 21.6713C403.939 20.8681 402.127 20.4665 399.961 20.4665H395.027V42.1835Z" fill="#171321"/>
<path d="M150.519 30.524H162.822C160.769 17.4432 149.449 8.33203 134.705 8.33203C117.26 8.33203 104.18 21.1536 104.18 42.6327C104.18 64.1118 116.677 76.8037 135.061 76.8037C151.561 76.8037 163.373 66.1965 163.373 49.0111V41.007H136.331V50.4423H151.691C151.496 59.9423 145.15 65.9642 135.126 65.9642C123.963 65.9642 116.315 57.6038 116.315 42.5031C116.315 27.4023 124.092 19.1715 134.862 19.1715C142.898 19.1715 148.364 23.4651 150.513 30.5294L150.519 30.524Z" fill="white"/>
<path d="M171.506 75.8857H183.286V25.9011H171.506V75.8857ZM177.431 17.9889C181.174 17.9889 184.231 15.1264 184.231 11.6105C184.231 8.09455 181.174 5.19971 177.431 5.19971C173.688 5.19971 170.599 8.06214 170.599 11.6105C170.599 15.1588 173.656 17.9889 177.431 17.9889Z" fill="white"/>
<path d="M218.558 25.9009H208.696V13.9272H196.917V25.9009H189.82V35.0121H196.917V62.8047C196.852 72.2076 203.684 76.8307 212.536 76.5714C215.89 76.4742 218.196 75.8207 219.466 75.3995L217.483 66.191C216.83 66.3531 215.496 66.6447 214.032 66.6447C211.073 66.6447 208.696 65.6024 208.696 60.855V35.0175H218.558V25.9063V25.9009Z" fill="white"/>
<path d="M227.675 75.8859H269.099V65.7648H239.746V9.23975H227.675V75.8859Z" fill="white"/>
<path d="M291.664 76.8961C299.506 76.8961 304.194 73.2182 306.338 69.0217H306.727V75.8862H318.052V42.4334C318.052 29.223 307.283 25.2534 297.745 25.2534C287.235 25.2534 279.167 29.9413 276.558 39.0525L287.559 40.6134C288.731 37.1946 292.047 34.2674 297.81 34.2674C303.573 34.2674 306.273 37.065 306.273 41.9798V42.1742C306.273 45.5605 302.725 45.7225 293.905 46.6623C284.206 47.7047 274.932 50.5995 274.932 61.8602C274.932 71.6897 282.126 76.8961 291.659 76.8961H291.664ZM295.536 68.2386C290.622 68.2386 287.106 65.9918 287.106 61.6658C287.106 57.3397 291.043 55.255 296.314 54.5043C299.403 54.083 305.587 53.2999 307.116 52.0631V57.9554C307.116 63.5183 302.622 68.2386 295.531 68.2386H295.536Z" fill="white"/>
<path d="M326.743 75.8859H338.327V68.0115H339.013C340.871 71.6571 344.744 76.7663 353.331 76.7663C365.11 76.7663 373.93 67.4282 373.93 50.9611C373.93 34.494 364.851 25.2532 353.299 25.2532C344.479 25.2532 340.801 30.5568 339.013 34.17H338.527V9.23975H326.748V75.8859H326.743ZM338.295 50.8963C338.295 41.1964 342.459 34.9207 350.042 34.9207C357.625 34.9207 361.918 41.5907 361.918 50.8963C361.918 60.2019 357.819 67.1042 350.042 67.1042C342.265 67.1042 338.295 60.5962 338.295 50.8963Z" fill="white"/>
<path d="M82.7063 32.0688L82.5928 31.7663L71.1431 1.89975C70.9163 1.31646 70.5004 0.819585 69.9657 0.479333C69.431 0.139081 68.8045 -0.0229441 68.1726 0.00946087C67.5407 0.0418658 66.9359 0.274101 66.439 0.668362C65.9475 1.06802 65.591 1.6027 65.429 2.2076L57.7004 25.8686H26.4188L18.6903 2.2076C18.5228 1.6027 18.1664 1.06262 17.6803 0.668362C17.1834 0.274101 16.5785 0.0418658 15.9466 0.00406004C15.3094 -0.0283449 14.6883 0.13368 14.1536 0.473932C13.6189 0.814184 13.2084 1.30566 12.9762 1.89435L1.52644 31.7717L1.41302 32.0688C-1.9787 40.9207 0.910747 50.923 8.4665 56.6371C8.48271 56.6479 8.49351 56.6587 8.50971 56.6695L8.61232 56.7451L26.0516 69.7989L34.6767 76.3285L39.9263 80.2981C41.1901 81.2541 42.94 81.2541 44.2038 80.2981L49.4534 76.3285L58.0785 69.7989L75.6204 56.6641C75.6204 56.6641 75.6528 56.6425 75.669 56.6263C83.2193 50.9122 86.1088 40.9099 82.7171 32.0634L82.7063 32.0688Z" fill="#E24329"/>
<path d="M82.7058 32.0693L82.5924 31.7668C76.9107 32.9334 71.6827 35.3368 67.2 38.6907C67.1298 38.7447 53.59 48.9847 42.0592 57.7016C50.6195 64.1772 58.0726 69.7995 58.0726 69.7995L75.6145 56.6647C75.6145 56.6647 75.6469 56.643 75.6631 56.6268C83.2135 50.9128 86.1029 40.9104 82.7112 32.0639L82.7058 32.0693Z" fill="#FC6D26"/>
<path d="M26.0459 69.7993L34.671 76.3289L39.9206 80.2985C41.1844 81.2544 42.9343 81.2544 44.1981 80.2985L49.4477 76.3289L58.0728 69.7993C58.0728 69.7993 50.6197 64.1716 42.0594 57.7014C33.499 64.177 26.0459 69.7993 26.0459 69.7993Z" fill="#FCA121"/>
<path d="M16.9129 38.6909C12.4357 35.3424 7.20765 32.9336 1.52058 31.7725L1.40716 32.0695C-1.98456 40.9215 0.904887 50.9238 8.46064 56.6379C8.47685 56.6487 8.48765 56.6595 8.50385 56.6703L8.60647 56.7459L26.0457 69.7997C26.0457 69.7997 33.4989 64.172 42.0592 57.7018C30.5284 48.9849 16.9885 38.7449 16.9183 38.6909H16.9129Z" fill="#FC6D26"/>
</svg>
