<?xml version="1.0" encoding="utf-8"?>
<svg version="1.1" id="Layer_1"
	xmlns="http://www.w3.org/2000/svg"
xmlns:xlink="http://www.w3.org/1999/xlink" xml:space="preserve">
	<defs>
		<linearGradient id="paint0_linear_666_7301" x1="46.6542" y1="58.186" x2="7.41468" y2="8.62083" gradientUnits="userSpaceOnUse">
			<stop stop-color="#161398"></stop>
			<stop offset="0.441167" stop-color="#1343FB"></stop>
			<stop offset="1" stop-color="#39DEC6"></stop>
		</linearGradient>
		<linearGradient id="paint1_linear_666_7301" x1="47.5041" y1="45.0758" x2="31.1925" y2="0.25782" gradientUnits="userSpaceOnUse">
			<stop stop-color="#161398"></stop>
			<stop offset="0.441167" stop-color="#1343FB"></stop>
			<stop offset="1" stop-color="#39DEC6"></stop>
		</linearGradient>
	</defs>
<path fill-rule="evenodd" clip-rule="evenodd" d="M30.544 1.29237C29.9063 -0.430791 27.4691 -0.43079 26.8315 1.29237L22.3752 13.3354C29.9565 16.0275 37.9442 22.3525 40.7654 36.212L56.0831 30.544C57.8062 29.9063 57.8062 27.4691 56.0831 26.8315L38.2954 20.2494C37.7536 20.049 37.3265 19.6218 37.126 19.0801L30.544 1.29237ZM35.4382 42.8565C35.4337 42.8477 35.4291 42.839 35.4246 42.8302C35.7735 35.4556 33.1274 21.2188 21.6078 15.4093L20.2494 19.0801C20.049 19.6218 19.6218 20.049 19.0801 20.2494L1.29237 26.8315C-0.430791 27.4691 -0.43079 29.9063 1.29237 30.544L19.0801 37.126C19.6218 37.3265 20.049 37.7536 20.2494 38.2954L26.8315 56.0831C27.4691 57.8062 29.9063 57.8062 30.544 56.0831L35.4382 42.8565Z" fill="url(#paint0_linear_666_7301)"></path>

<path class="letter" d="M75.5137 28.3639C75.5137 34.5381 79.4859 39.0716 85.5305 39.0716C88.596 39.0716 91.2298 37.8194 92.5682 35.8333V39.3738C92.5682 42.9142 90.2367 45.2026 86.6099 45.2026C83.3717 45.2026 81.2561 43.5619 80.9107 40.7986H75.6432C76.2908 46.4978 80.4789 49.9951 86.6099 49.9951C93.5181 49.9951 97.7925 45.548 97.7925 38.4239V18.1743H92.9136L92.6114 21.1103C91.3593 18.822 88.8551 17.4835 85.6601 17.4835C79.5722 17.4835 75.5137 22.1465 75.5137 28.3639ZM80.8243 28.2344C80.8243 24.7371 83.0695 22.1034 86.5667 22.1034C90.2367 22.1034 92.4387 24.6076 92.4387 28.2344C92.4387 31.9475 90.1935 34.4949 86.5667 34.4949C83.1127 34.4949 80.8243 31.818 80.8243 28.2344Z"></path>
<path class="letter" d="M117.302 18.1743V29.3569C117.302 33.4155 115.705 35.3584 112.38 35.3584C109.444 35.3584 107.847 33.7177 107.847 29.6592V18.1743H102.579V31.5157C102.579 36.74 105.472 40.0646 110.394 40.0646C113.244 40.0646 116.007 38.683 117.302 36.6537L117.691 39.5033H122.57V18.1743H117.302Z"></path>
<path class="letter" d="M130.239 13.8999C131.966 13.8999 133.39 12.4751 133.39 10.7049C133.39 8.93465 131.966 7.55301 130.239 7.55301C128.425 7.55301 127 8.93465 127 10.7049C127 12.4751 128.425 13.8999 130.239 13.8999ZM127.605 39.5033H132.872V18.1743H127.605V39.5033Z"></path>
<path class="letter" d="M146.674 40.0646C149.912 40.0646 152.675 38.6398 153.971 36.1788L154.316 39.5033H159.152V7.38031H153.927V20.8944C152.589 18.7788 149.955 17.5267 146.976 17.5267C140.543 17.5267 136.657 22.2761 136.657 28.9252C136.657 35.5311 140.5 40.0646 146.674 40.0646ZM147.84 35.2289C144.17 35.2289 141.924 32.552 141.924 28.7525C141.924 24.953 144.17 22.2329 147.84 22.2329C151.509 22.2329 153.884 24.9098 153.884 28.7525C153.884 32.5951 151.509 35.2289 147.84 35.2289Z"></path>
<path class="letter" d="M173.777 40.0646C179.347 40.0646 183.233 37.2582 184.14 32.5951H179.261C178.656 34.6244 176.757 35.747 173.864 35.747C170.367 35.747 168.38 33.8472 167.992 30.0909L184.053 30.0478V28.4502C184.053 21.8011 179.995 17.5267 173.605 17.5267C167.344 17.5267 162.983 22.1465 162.983 28.8388C162.983 35.4448 167.431 40.0646 173.777 40.0646ZM173.648 21.8443C176.8 21.8443 178.829 23.7872 178.829 26.7232H168.121C168.64 23.5282 170.539 21.8443 173.648 21.8443Z"></path>
<path class="letter" d="M188.252 48.6135H191.231V35.4879C192.699 38.5103 195.506 40.0214 199.046 40.0214C205.22 40.0214 208.718 35.2721 208.718 28.9683C208.718 22.6646 205.091 18.0448 199.046 18.0448C195.549 18.0448 192.613 19.5991 191.145 22.8373L190.843 18.6061H188.252V48.6135ZM191.275 29.0547C191.275 24.219 193.951 20.7649 198.528 20.7649C203.062 20.7649 205.695 24.219 205.695 29.0547C205.695 33.8472 203.062 37.3445 198.528 37.3445C193.951 37.3445 191.275 33.8472 191.275 29.0547Z"></path>
<path class="letter" d="M219.062 40.0214C222.603 40.0214 225.452 38.4671 226.748 35.8333L227.136 39.5033H229.64V25.9892C229.64 20.4627 226.1 18.0448 221.264 18.0448C216.126 18.0448 212.672 20.7649 212.672 24.9961H215.392C215.392 22.1897 217.551 20.549 221.178 20.549C224.243 20.549 226.705 21.8443 226.705 25.946V26.6368L219.796 27.1981C214.917 27.5867 211.981 30.0046 211.981 33.8472C211.981 37.5172 214.615 40.0214 219.062 40.0214ZM219.753 37.6036C216.904 37.6036 215.004 36.3083 215.004 33.7609C215.004 31.4294 216.601 29.7023 220.53 29.3569L226.705 28.882V30.0046C226.705 34.5381 224.157 37.6036 219.753 37.6036Z"></path>
<path class="letter" d="M243.417 40.0214C246.914 40.0214 249.85 38.4671 251.318 35.2289L251.62 39.5033H254.211V8.02795H251.232V22.5783C249.764 19.556 247 18.0448 243.546 18.0448C237.329 18.0448 233.745 22.7942 233.745 29.0979C233.745 35.3584 237.329 40.0214 243.417 40.0214ZM243.935 37.3013C239.401 37.3013 236.768 33.8472 236.768 29.0115C236.768 24.219 239.401 20.7217 243.935 20.7217C248.511 20.7217 251.188 24.219 251.188 29.0115C251.188 33.8472 248.511 37.3013 243.935 37.3013Z"></path>
</svg>
