<svg width="305" height="92" viewBox="0 0 305 92" fill="none" xmlns="http://www.w3.org/2000/svg">
<path d="M36.593 91V57.72L38.769 63.608L0.753 1.39999H10.865L44.273 56.056H38.897L72.305 1.39999H81.777L43.761 63.608L45.937 57.72V91H36.593ZM114.314 91.64C107.829 91.64 101.983 90.1893 96.778 87.288C91.658 84.3013 87.6047 80.248 84.618 75.128C81.6313 69.9227 80.138 63.992 80.138 57.336C80.138 50.5947 81.6313 44.664 84.618 39.544C87.6047 34.424 91.658 30.4133 96.778 27.512C101.898 24.6107 107.743 23.16 114.314 23.16C120.97 23.16 126.858 24.6107 131.978 27.512C137.183 30.4133 141.237 34.424 144.138 39.544C147.125 44.664 148.618 50.5947 148.618 57.336C148.618 63.992 147.125 69.9227 144.138 75.128C141.237 80.248 137.183 84.3013 131.978 87.288C126.773 90.1893 120.885 91.64 114.314 91.64ZM114.314 83.576C119.178 83.576 123.487 82.5093 127.242 80.376C130.997 78.1573 133.941 75.0853 136.074 71.16C138.293 67.1493 139.402 62.5413 139.402 57.336C139.402 52.0453 138.293 47.4373 136.074 43.512C133.941 39.5867 130.997 36.5573 127.242 34.424C123.487 32.2053 119.221 31.096 114.442 31.096C109.663 31.096 105.397 32.2053 101.642 34.424C97.8873 36.5573 94.9007 39.5867 92.682 43.512C90.4633 47.4373 89.354 52.0453 89.354 57.336C89.354 62.5413 90.4633 67.1493 92.682 71.16C94.9007 75.0853 97.8873 78.1573 101.642 80.376C105.397 82.5093 109.621 83.576 114.314 83.576ZM194.948 91.64C189.231 91.64 184.239 90.5733 179.972 88.44C175.705 86.3067 172.377 83.1067 169.988 78.84C167.684 74.5733 166.532 69.24 166.532 62.84V23.8H175.62V61.816C175.62 68.984 177.369 74.4027 180.868 78.072C184.452 81.656 189.444 83.448 195.844 83.448C200.537 83.448 204.591 82.5093 208.004 80.632C211.503 78.6693 214.148 75.8533 215.94 72.184C217.817 68.5147 218.756 64.12 218.756 59V23.8H227.844V91H219.14V72.568L220.548 75.896C218.415 80.8453 215.087 84.728 210.564 87.544C206.127 90.2747 200.921 91.64 194.948 91.64ZM271.83 64.12C271.83 60.536 272.385 57.464 273.494 54.904C274.689 52.344 276.139 50.0827 277.846 48.12C279.638 46.1573 281.515 44.3227 283.478 42.616C285.526 40.9093 287.446 39.2027 289.238 37.496C291.03 35.704 292.481 33.784 293.59 31.736C294.699 29.6027 295.254 27.128 295.254 24.312C295.254 19.704 293.462 15.9493 289.878 13.048C286.294 10.1467 281.217 8.696 274.646 8.696C269.185 8.696 264.449 9.592 260.438 11.384C256.427 13.0907 253.014 15.6507 250.198 19.064L243.414 13.944C246.827 9.67733 251.222 6.392 256.598 4.088C261.974 1.784 268.203 0.631996 275.286 0.631996C281.259 0.631996 286.422 1.52799 290.774 3.31999C295.211 5.11199 298.625 7.672 301.014 11C303.489 14.328 304.726 18.296 304.726 22.904C304.726 26.5733 304.129 29.7307 302.934 32.376C301.825 34.936 300.374 37.24 298.582 39.288C296.875 41.2507 294.998 43.128 292.95 44.92C290.987 46.6267 289.11 48.376 287.318 50.168C285.526 51.96 284.075 53.9653 282.966 56.184C281.857 58.4027 281.302 61.048 281.302 64.12H271.83ZM276.566 91.64C274.774 91.64 273.195 91 271.83 89.72C270.55 88.3547 269.91 86.776 269.91 84.984C269.91 83.1067 270.55 81.5707 271.83 80.376C273.195 79.096 274.774 78.456 276.566 78.456C278.529 78.456 280.15 79.096 281.43 80.376C282.71 81.5707 283.35 83.1067 283.35 84.984C283.35 86.776 282.71 88.3547 281.43 89.72C280.15 91 278.529 91.64 276.566 91.64Z" fill="#5F5ED7"/>
</svg>
